<svg width="40" height="52" fill="none" xmlns="http://www.w3.org/2000/svg"><path d="M24.864 1H5.136A4.136 4.136 0 0 0 1 5.136v42a4.136 4.136 0 0 0 4.136 4.137h19.728A4.136 4.136 0 0 0 29 47.136v-42A4.136 4.136 0 0 0 24.864 1Z" stroke="#14161D"/><path fill-rule="evenodd" clip-rule="evenodd" d="M8.836 22.796c0-.292.25-.528.56-.528h16.79c.31 0 .56.236.56.528 0 .292-.25.529-.56.529H9.396c-.31 0-.56-.237-.56-.529Zm1.12 2.114c0-.291.25-.528.559-.528h8.955c.309 0 .56.237.56.528 0 .293-.251.53-.56.53h-8.955c-.31 0-.56-.238-.56-.53Zm-.56 1.586c-.31 0-.56.237-.56.529 0 .292.25.529.56.529h15.67c.31 0 .56-.237.56-.53 0-.291-.25-.528-.56-.528H9.397Zm.56 2.643c0-.292.25-.528.559-.528h6.716c.31 0 .56.236.56.528 0 .292-.25.529-.56.529h-6.716c-.31 0-.56-.237-.56-.529Zm.559 1.586c-.31 0-.56.237-.56.529 0 .292.25.528.56.528h6.716c.31 0 .56-.236.56-.528 0-.292-.25-.529-.56-.529h-6.716Z" fill="#E4E8F4"/><path d="M4.287 26.985a.33.33 0 0 0-.339.32c0 .176.151.32.339.32.394 0 .704.12.949.366.715.72.619 2.234.617 2.272v4.077c0 1.027.302 1.82.897 2.353.714.64 1.616.686 1.855.686l.06-.001a.327.327 0 0 0 .32-.336.333.333 0 0 0-.356-.303c-.009.004-.808.033-1.413-.51-.456-.408-.686-1.044-.686-1.889v-4.056c.005-.073.117-1.805-.798-2.729a1.88 1.88 0 0 0-.305-.25c.108-.072.21-.155.305-.251.915-.925.803-2.656.798-2.708V20.27c0-.842.229-1.475.68-1.884.6-.542 1.409-.516 1.42-.515a.33.33 0 0 0 .355-.303.328.328 0 0 0-.32-.336c-.048 0-1.101-.045-1.914.685-.596.534-.897 1.326-.897 2.353v4.099c.03.421-.021 1.647-.616 2.249-.246.247-.557.368-.951.368Z" fill="#3980FF"/><path d="M7.386 1h15.228a2.228 2.228 0 0 1-2.205 1.91H9.591c-1.122 0-2.05-.83-2.205-1.91Z" fill="#14161D" stroke="#14161D"/><path d="M33.09 10h-8.18A5.91 5.91 0 0 0 19 15.91v8.18A5.91 5.91 0 0 0 24.91 30h8.18A5.91 5.91 0 0 0 39 24.09v-8.18A5.91 5.91 0 0 0 33.09 10Z" fill="#F4F6FA" stroke="#14161D"/><path d="M33.235 12h-8.47A3.765 3.765 0 0 0 21 15.765v8.47A3.765 3.765 0 0 0 24.765 28h8.47A3.765 3.765 0 0 0 37 24.235v-8.47A3.765 3.765 0 0 0 33.235 12Z" fill="#E4E8F4"/><path d="m25.3 21.7-.354-.353-.146.147v.207h.5Zm5.4-5.4.354-.353a.5.5 0 0 0-.707 0l.353.354Zm3 3 .354.354a.5.5 0 0 0 0-.707l-.354.354Zm-5.4 5.4v.5h.207l.147-.146-.354-.353Zm-3 0h-.5a.5.5 0 0 0 .5.5v-.5Zm.354-2.646 5.4-5.4-.707-.707-5.4 5.4.707.707Zm4.692-5.4 3 3 .708-.707-3-3-.707.707Zm3 2.293-5.4 5.4.708.707 5.4-5.4-.708-.707ZM28.3 24.201h-3v1h3v-1Zm-2.5.5v-3h-1v3h1Zm2.747-6.247 3 3 .707-.707-3-3-.707.707Zm1.253 6.747H34v-1h-4.2v1Z" fill="#000"/></svg>