<svg width="302" height="131" fill="none" xmlns="http://www.w3.org/2000/svg"><rect x="1" y="1" width="300" height="129" rx="15" fill="#FEF4FF" fill-opacity=".07"/><rect x=".5" y=".5" width="301" height="130" rx="15.5" stroke="#fff" stroke-opacity=".28"/><g clip-path="url(#a)"><path d="M107.066-56.24c0-6.341 4.483-8.898 10.015-5.714l138.14 79.821c5.496 3.148 9.978 10.861 9.978 17.202l-.269 94.987c0 6.341-4.482 8.888-10.014 5.705L116.767 55.939c-5.514-3.184-9.961-10.888-9.943-17.228l.242-94.952Z" stroke="#fff" stroke-width=".471" stroke-miterlimit="10"/><g filter="url(#b)" shape-rendering="crispEdges"><path d="M107.712-74.537c-3.918-2.27-7.101-.448-7.119 4.054l-.358 115.956c0 4.484 3.147 9.982 7.064 12.25l156.896 90.629c3.909 2.26 7.101.449 7.11-4.054l.332-115.955c0-4.485-3.156-9.991-7.074-12.252L107.712-74.537Z" fill="url(#c)" fill-opacity=".25"/><path d="m100.05-70.485-.359 115.956v.002c0 2.36.824 4.948 2.136 7.227 1.311 2.28 3.139 4.3 5.2 5.494h.001l156.895 90.629c2.054 1.187 4.044 1.373 5.558.511 1.516-.863 2.363-2.667 2.367-5.034l-.543-.002.543.002.332-115.956v-.001c0-2.36-.827-4.951-2.14-7.231-1.314-2.28-3.144-4.302-5.205-5.491h-.001l-156.85-90.628-7.934 4.522Zm0 0c.009-2.367.855-4.172 2.371-5.037m-2.371 5.037 2.371-5.037m0 0c1.514-.863 3.505-.677 5.563.514l-5.563-.514Z" stroke="#fff" stroke-opacity=".52" stroke-width="1.087"/></g><path d="M102.662-75.04h.004l5.996-3.479c1.291-.753 3.075-.646 5.048.493l156.869 90.629c3.918 2.26 7.082 7.749 7.073 12.25l-.331 115.957c0 2.233-.798 3.811-2.071 4.547l-5.989 3.489c1.273-.745 2.062-2.314 2.062-4.547l.332-115.956c0-4.485-3.156-9.991-7.074-12.252L107.685-74.537a6.2 6.2 0 0 0-3.407-.968 3.585 3.585 0 0 0-1.619.453c-.006.004-.003.013.003.013Z" fill="url(#d)" fill-opacity=".25"/><path d="M269.535 149.315h-.001l-.548-.939c1.05-.613 1.793-1.961 1.793-4.077v-.002l.332-115.954v-.001c0-2.124-.751-4.529-1.995-6.688-1.244-2.159-2.951-4.02-4.807-5.092L107.413-74.066l-.01-.006-.01-.006a5.657 5.657 0 0 0-3.101-.884c-.4.015-.791.11-1.153.276l-.199.116 166.595 223.885Zm0 0 5.987-3.488h.001c1.498-.866 2.341-2.667 2.341-5.016v-.001l.332-115.955c.005-2.37-.822-4.96-2.137-7.24-1.315-2.278-3.147-4.294-5.208-5.483l-1.316 137.183ZM102.635-75.65l5.753-3.338.001-.001c1.52-.886 3.522-.703 5.593.493L270.85 12.132 102.635-75.65Zm0 0c-.082.038-.162.08-.241.124-.497.278-.296 1.03.268 1.03a.554.554 0 0 0 .277-.074l-.304-1.08Zm-.242.14.007-.004-.007.004Zm.532.933-.259-.463.259.463Z" stroke="#fff" stroke-opacity=".52" stroke-width="1.087"/><g filter="url(#e)" shape-rendering="crispEdges"><path d="M106.287 57.177c-3.918-2.26-10.248-2.27-14.139 0L-8.068 115.473c-3.9 2.26-3.873 5.938.045 8.198l156.896 90.583c3.918 2.26 10.256 2.26 14.147 0l100.216-58.296c3.9-2.269 3.873-5.937 0-8.198L106.287 57.177Z" fill="url(#f)" fill-opacity=".25"/><path d="M106.558 56.706c-2.06-1.189-4.721-1.77-7.35-1.771-2.63-.001-5.285.578-7.334 1.772L-8.34 115.003l114.899-58.297Zm0 0 156.95 90.584.002.001c2.036 1.188 3.181 2.821 3.185 4.564.004 1.744-1.135 3.38-3.185 4.573l-.274-.47.274.47-100.217 58.296c-2.048 1.19-4.706 1.769-7.337 1.769-2.631 0-5.294-.579-7.355-1.768M106.558 56.706l42.043 158.019m0 0L-8.295 124.141c-2.058-1.187-3.215-2.821-3.226-4.566m160.122 95.15-160.122-95.15m0 0c-.01-1.746 1.13-3.383 3.18-4.572l-3.18 4.572Z" stroke="#fff" stroke-opacity=".52" stroke-width="1.087"/></g><path d="m41.242 101.948 61.862-35.973a7.77 7.77 0 0 1 7.082 0l137.836 79.588c1.954 1.13 1.963 2.969 0 4.099l-61.862 35.982a7.828 7.828 0 0 1-7.083 0l-137.8-79.588c-1.963-1.139-1.98-2.969 0-4.108" stroke="#fff" stroke-width=".5" stroke-linejoin="round"/><path d="m51.731 165.097-59.781-34.53c-1.964-1.139-2.95-2.628-2.95-4.125v-6.933c0 1.489.977 2.986 2.95 4.125l156.895 90.584c3.918 2.26 10.257 2.26 14.148 0l100.216-58.296a6.802 6.802 0 0 0 2.179-1.902 3.797 3.797 0 0 0 .726-2.17v6.942c0 1.47-.968 2.941-2.905 4.062l-100.216 58.297c-3.891 2.269-10.23 2.269-14.148 0l-70.127-40.476" fill="url(#g)"/><path d="m51.731 165.097-59.781-34.53c-1.964-1.139-2.95-2.628-2.95-4.125v-6.933c0 1.489.977 2.986 2.95 4.125l156.895 90.584c3.918 2.26 10.257 2.26 14.148 0l100.216-58.296a6.802 6.802 0 0 0 2.179-1.902 3.797 3.797 0 0 0 .726-2.17v6.942c0 1.47-.968 2.941-2.905 4.062l-100.216 58.297c-3.891 2.269-10.23 2.269-14.148 0l-70.127-40.476" stroke="#fff" stroke-width=".943" stroke-linejoin="round"/><path d="m48.136 103.132 6.832 3.947a1.24 1.24 0 0 0 1.12 0l6.788-3.947a.345.345 0 0 0 .226-.327.349.349 0 0 0-.226-.327l-6.832-3.947a1.282 1.282 0 0 0-1.13 0l-6.787 3.947a.346.346 0 0 0-.226.327.35.35 0 0 0 .226.327m16.165-9.973-6.787 3.947c-.314.179-.305.466 0 .645l18.63 10.763a1.294 1.294 0 0 0 1.121 0l6.787-3.947c.314-.188.314-.475 0-.654L65.413 93.15a1.255 1.255 0 0 0-1.13 0l.009.01Zm72.755 8.278a.589.589 0 0 0-.17-.152l-6.832-3.946a1.256 1.256 0 0 0-1.13 0l-6.796 3.946c-.304.179-.304.475 0 .655l6.832 3.946a.74.74 0 0 0 .26.098c.287.072.589.037.852-.098l6.796-3.946a.423.423 0 0 0 .215-.287v-.045a.273.273 0 0 0-.063-.171h.036Zm-20.961 7.462a.35.35 0 0 0 0 .655l6.831 3.946a1.286 1.286 0 0 0 1.13 0l6.787-3.946a.351.351 0 0 0 .164-.526.347.347 0 0 0-.164-.129l-6.832-3.946a1.242 1.242 0 0 0-1.121 0l-6.786 3.946h-.009Zm5.235-5.498-6.831-3.946a1.254 1.254 0 0 0-1.13 0l-6.787 3.946c-.314.18-.305.476 0 .655l6.832 3.946a1.202 1.202 0 0 0 1.121 0l6.786-3.946a.337.337 0 0 0 .232-.323.339.339 0 0 0-.232-.323l.009-.009Zm4.277 11.005c-.314.179-.305.466 0 .646l6.832 3.946a1.194 1.194 0 0 0 1.129 0l6.787-3.946c.314-.18.305-.467 0-.646l-6.832-3.946a1.235 1.235 0 0 0-1.12 0l-6.787 3.946h-.009Zm9.602 5.489c-.314.188-.314.475 0 .655l6.832 3.946a1.235 1.235 0 0 0 1.12 0l6.796-3.946c.305-.18.305-.467 0-.646l-6.832-3.946a1.199 1.199 0 0 0-1.12 0l-6.787 3.946-.009-.009Zm9.521 5.507a.345.345 0 0 0-.226.327.352.352 0 0 0 .226.327l6.832 3.947a1.26 1.26 0 0 0 1.13 0l6.724-3.983a.345.345 0 0 0 .226-.327.347.347 0 0 0-.226-.327l-6.832-3.946a1.265 1.265 0 0 0-1.112 0l-6.795 3.946.053.036Zm9.468 5.462a.34.34 0 0 0-.164.128.346.346 0 0 0 0 .398c.04.058.097.103.164.128l6.84 3.946a1.25 1.25 0 0 0 1.13 0l6.787-3.946a.346.346 0 0 0 .226-.327.345.345 0 0 0-.226-.327l-6.85-3.947a1.235 1.235 0 0 0-1.12 0l-6.787 3.947Zm9.512 5.497a.347.347 0 0 0-.226.328.347.347 0 0 0 .226.327l6.832 3.946a1.219 1.219 0 0 0 1.13 0l6.786-3.946a.337.337 0 0 0 .232-.323.34.34 0 0 0-.232-.323l-6.84-3.946a1.243 1.243 0 0 0-1.121 0l-6.787 3.946v-.009Zm9.513 5.507c-.314.179-.305.475 0 .655l6.831 3.946a1.266 1.266 0 0 0 1.121 0l6.787-3.946a.346.346 0 0 0 .168-.124.346.346 0 0 0 0-.398.346.346 0 0 0-.168-.124l-6.832-3.946a1.286 1.286 0 0 0-1.13 0l-6.786 3.955.009-.018Zm9.503 5.516c-.314.179-.314.466 0 .646l6.832 3.946a1.255 1.255 0 0 0 1.129 0l6.787-3.946c.305-.18.305-.467 0-.646l-6.832-3.946a1.224 1.224 0 0 0-1.12 0l-6.787 3.946h-.009Zm2.86 4.152-6.841-3.946a1.256 1.256 0 0 0-1.129 0l-6.787 3.946c-.305.18-.305.467 0 .655l6.831 3.946a1.243 1.243 0 0 0 1.121 0l6.787-3.946c.314-.188.314-.475 0-.655h.018Zm-9.593-4.888a.345.345 0 0 0 .226-.327.345.345 0 0 0-.226-.327l-6.832-3.947a1.23 1.23 0 0 0-1.129 0l-6.787 3.947a.337.337 0 0 0-.168.521c.042.058.1.102.168.124l6.84 3.947a1.243 1.243 0 0 0 1.121 0l6.787-3.947v.009Zm-9.611-5.56c.314-.18.314-.467 0-.646l-6.832-3.946a1.256 1.256 0 0 0-1.129 0l-6.787 3.946c-.305.179-.305.466 0 .646l6.831 3.946a1.243 1.243 0 0 0 1.121 0l6.787-3.946h.009Zm-9.611-5.543a.351.351 0 0 0 .164-.526.347.347 0 0 0-.164-.129l-6.841-3.946a1.235 1.235 0 0 0-1.12 0l-6.787 3.946a.35.35 0 0 0 0 .655l6.831 3.946a1.274 1.274 0 0 0 1.13 0l6.787-3.946Zm-9.611-5.551a.353.353 0 0 0 .226-.328.347.347 0 0 0-.226-.327l-6.832-3.946a1.244 1.244 0 0 0-1.129 0l-6.787 3.946a.354.354 0 0 0-.165.128.355.355 0 0 0 0 .398.356.356 0 0 0 .165.129l6.84 3.946a1.243 1.243 0 0 0 1.121 0l6.787-3.946Zm-9.611-5.552c.314-.179.314-.475 0-.646l-6.832-3.946a1.231 1.231 0 0 0-1.129 0l-6.787 3.946c-.305.171-.296.467 0 .646l6.831 3.946a1.243 1.243 0 0 0 1.121 0l6.787-3.946h.009Zm-9.611-5.543c.314-.188.314-.475 0-.654l-6.841-3.947a1.235 1.235 0 0 0-1.12 0l-6.787 3.947a.337.337 0 0 0-.168.521c.042.058.1.102.168.124l6.831 3.947a1.236 1.236 0 0 0 1.13 0l6.787-3.947v.009Zm-9.611-5.56a.342.342 0 0 0 .164-.129.347.347 0 0 0-.164-.526l-6.832-3.946a1.243 1.243 0 0 0-.565-.134c-.196 0-.389.045-.564.134l-6.787 3.946a.354.354 0 0 0-.165.128.355.355 0 0 0 0 .398.35.35 0 0 0 .165.129l6.831 3.946a1.243 1.243 0 0 0 1.121 0l6.787-3.946h.009Zm-9.611-5.552c.314-.179.305-.475 0-.655l-6.832-3.946a1.213 1.213 0 0 0-1.12 0l-6.796 4a.34.34 0 0 0 0 .646l6.831 3.946a1.25 1.25 0 0 0 1.13 0l6.787-3.946v-.045Zm-9.611-5.507c.314-.179.314-.466 0-.645l-6.84-3.947a1.238 1.238 0 0 0-1.121 0l-6.787 3.947a.34.34 0 0 0 0 .645l6.84 3.956a1.294 1.294 0 0 0 1.121 0l6.787-3.956Zm-9.62-5.578a.413.413 0 0 0 .233-.332.405.405 0 0 0-.233-.323l-5.092-2.942-.897-.502-.269-.152-.61-.35a1.255 1.255 0 0 0-1.13 0l-6.786 3.946c-.233.135-.287.332-.17.502.05.062.11.114.179.153l.61.35.564.322.565.332 5.093 2.942a1.24 1.24 0 0 0 1.12 0l6.787-3.946h.036Zm-1.972-3.632 6.84 3.946a1.255 1.255 0 0 0 1.13 0l6.787-3.946a.35.35 0 0 0 0-.655l-6.832-3.946a1.291 1.291 0 0 0-1.12 0l-6.787 3.946c-.314.188-.314.475 0 .655h-.018Zm9.539 4.843a.35.35 0 0 0 0 .654l6.832 3.947a1.255 1.255 0 0 0 1.129 0l6.787-3.947a.344.344 0 0 0 .164-.128.346.346 0 0 0 0-.398.345.345 0 0 0-.164-.128l-6.841-3.947a1.233 1.233 0 0 0-1.12 0l-6.787 3.947Zm6.276-6.852a.513.513 0 0 0 .179.152l6.832 3.946a1.233 1.233 0 0 0 1.12 0l6.787-3.946a.407.407 0 0 0 .233-.332.396.396 0 0 0-.074-.192.394.394 0 0 0-.159-.13l-6.831-3.947a1.168 1.168 0 0 0-.565-.134 1.149 1.149 0 0 0-.565.134l-6.787 3.946a.473.473 0 0 0-.17.153.285.285 0 0 0 0 .35Zm9.467 4.87c-.314.179-.305.466 0 .645l6.832 3.947a1.242 1.242 0 0 0 1.121 0l6.787-3.947c.313-.18.304-.466 0-.645l-6.832-3.947a1.202 1.202 0 0 0-1.13 0l-6.787 3.947h.009Zm18.577 10.762c-.305.179-.305.466 0 .646l6.84 3.955a1.28 1.28 0 0 0 1.112 0l6.787-3.955c.314-.18.314-.467 0-.646l-6.832-3.946a1.244 1.244 0 0 0-1.129 0l-6.796 3.946h.018Zm9.279 5.381c-.305.171-.296.467 0 .646l6.832 3.946a1.235 1.235 0 0 0 1.12 0l6.787-3.946c.314-.179.314-.475 0-.646l-6.733-3.991a1.286 1.286 0 0 0-1.129 0l-6.787 3.955-.09.036Zm9.387 5.345c-.233.135-.287.332-.162.503a.472.472 0 0 0 .171.152l6.832 3.946c.082.042.17.076.26.099.197.048.403.048.6 0 .09-.023.177-.057.26-.099l6.787-3.946a.348.348 0 0 0 0-.655l-6.832-3.946a1.255 1.255 0 0 0-1.129 0l-6.787 3.946Zm9.297 5.382c-.305.179-.305.466 0 .645l6.832 3.947a1.235 1.235 0 0 0 1.12 0l6.787-3.947c.314-.179.314-.466 0-.645l-6.831-3.947a1.262 1.262 0 0 0-1.13 0l-6.787 3.947h.009Zm9.288 5.381c-.313.179-.305.475 0 .655l6.832 3.946a1.242 1.242 0 0 0 1.121 0l6.787-3.946a.352.352 0 0 0 .164-.527.356.356 0 0 0-.164-.128l-6.832-3.946a1.247 1.247 0 0 0-1.13 0l-6.787 3.946h.009Zm9.289 5.381c-.314.179-.305.475 0 .655l6.831 3.946a1.222 1.222 0 0 0 1.112 0l6.796-3.946a.347.347 0 0 0 .226-.328.347.347 0 0 0-.226-.327l-6.832-3.946a1.26 1.26 0 0 0-1.13 0l-6.786 3.946h.009Zm9.279 5.381c-.305.18-.296.467 0 .646l6.84 3.946a1.222 1.222 0 0 0 1.112 0l6.787-3.946c.314-.179.314-.475 0-.646l-6.832-3.946a1.23 1.23 0 0 0-1.129 0l-6.796 3.946h.018Zm9.279 5.381a.353.353 0 0 0-.226.328.347.347 0 0 0 .226.327l6.832 3.946a1.224 1.224 0 0 0 1.12 0l6.787-3.946a.354.354 0 0 0 .165-.128.355.355 0 0 0 0-.398.356.356 0 0 0-.165-.129l-6.84-3.946a1.262 1.262 0 0 0-1.13 0l-6.787 3.946h.018Zm9.288 5.382a.339.339 0 0 0-.231.323c0 .071.022.14.064.198.041.058.1.102.167.124l6.832 3.956a1.293 1.293 0 0 0 1.121 0l6.84-4.072c.314-.18.314-.467 0-.646l-6.831-3.946a1.243 1.243 0 0 0-1.121 0l-6.787 3.946-.054.117Zm1.255 3.219-6.84-3.955a1.243 1.243 0 0 0-1.121 0l-6.787 3.946a.353.353 0 0 0-.226.328.347.347 0 0 0 .226.327l6.841 3.946a1.23 1.23 0 0 0 1.121 0l6.786-3.946c.314-.179.305-.466 0-.646Zm-11.807 4.207-6.832-3.946a1.244 1.244 0 0 0-1.129 0l-6.787 3.946c-.305.179-.305.466 0 .645l6.831 3.947a1.27 1.27 0 0 0 1.121 0l6.787-3.947c.314-.188.314-.475 0-.654l.009.009Zm-14.434 2.681-6.832-3.946a1.26 1.26 0 0 0-1.13 0l-6.787 3.946a.347.347 0 0 0-.226.328.351.351 0 0 0 .226.327l6.832 3.946a1.23 1.23 0 0 0 1.121 0l6.787-3.946a.356.356 0 0 0 .164-.128.355.355 0 0 0 0-.398.352.352 0 0 0-.164-.129h.009Zm-9.683-4.932a.347.347 0 0 0 .226-.328.347.347 0 0 0-.226-.327l-6.832-3.946a1.247 1.247 0 0 0-1.13 0l-6.786 3.946a.354.354 0 0 0-.165.128.355.355 0 0 0 0 .398.35.35 0 0 0 .165.129l6.831 3.946a1.243 1.243 0 0 0 1.121 0l6.787-3.946h.009Zm-9.683-5.588c.314-.179.314-.475 0-.646l-6.841-3.946a1.203 1.203 0 0 0-1.129 0l-6.787 3.946c-.305.171-.305.467 0 .646l6.832 3.946a1.224 1.224 0 0 0 1.12 0l6.787-3.946h.018Zm-9.683-5.587a.339.339 0 0 0 .232-.323.337.337 0 0 0-.232-.323l-6.831-3.946a1.198 1.198 0 0 0-1.13 0l-6.76 3.946c-.314.179-.305.466 0 .646l6.832 3.946a1.219 1.219 0 0 0 1.111 0l6.796-3.946h-.018Zm-9.655-5.588c.313-.179.313-.466 0-.646l-6.832-3.946a1.26 1.26 0 0 0-1.13 0l-6.787 3.946c-.304.18-.304.467 0 .646l6.832 3.955a1.28 1.28 0 0 0 1.121 0l6.787-3.955h.009Zm-9.683-5.578c.314-.189.314-.476 0-.655l-6.832-3.946a1.244 1.244 0 0 0-1.129 0l-6.787 3.946c-.305.179-.305.466 0 .655l6.831 3.946a1.243 1.243 0 0 0 1.121 0l6.787-3.946h.009Zm-9.638-5.624a.505.505 0 0 0 .179-.152c.117-.171.054-.368-.17-.502l-6.841-3.947a1.154 1.154 0 0 0-.565-.134 1.19 1.19 0 0 0-.564.134l-6.787 3.947a.348.348 0 0 0-.165.526.354.354 0 0 0 .165.128l6.831 3.947c.084.047.175.08.269.098.099.014.198.014.296 0 .194.004.385-.043.556-.134l6.796-3.911Zm-9.665-5.587a.354.354 0 0 0 .165-.128.355.355 0 0 0 0-.399.354.354 0 0 0-.165-.128l-6.832-3.946a1.255 1.255 0 0 0-1.129 0l-6.796 3.946c-.305.179-.305.475 0 .655l6.832 3.946a1.219 1.219 0 0 0 1.111 0l6.796-3.946h.018Zm-9.691-5.588a.337.337 0 0 0 .167-.521.333.333 0 0 0-.167-.124l-6.832-3.947a1.232 1.232 0 0 0-1.13 0l-6.787 3.947c-.304.17-.304.466 0 .645l6.832 3.947a1.24 1.24 0 0 0 1.12 0l6.788-3.947h.009Zm-9.683-5.587c.314-.18.314-.467 0-.646l-6.832-3.946a1.221 1.221 0 0 0-1.13 0l-6.786 3.946c-.305.179-.296.466 0 .646l6.831 3.946a1.24 1.24 0 0 0 1.121 0l6.787-3.946h.009Zm-9.871-28.198a1.13 1.13 0 0 0-.556.135l-16.308 9.48a.403.403 0 0 0-.233.323.404.404 0 0 0 .242.332l5.038 2.905c.171.092.362.138.556.135.194.004.386-.042.556-.135l8.4-4.879a1.237 1.237 0 0 1 1.121 0l2.197 1.265a1.255 1.255 0 0 0 1.13 0l6.786-3.946a.341.341 0 0 0 0-.646l-8.364-4.834a1.147 1.147 0 0 0-.565-.135Zm9.566-5.56a1.148 1.148 0 0 0-.565.134l-6.787 3.947a.413.413 0 0 0-.233.331.394.394 0 0 0 .242.323l14.982 8.655a1.232 1.232 0 0 0 1.12 0l6.787-3.946a.344.344 0 0 0 .164-.128.347.347 0 0 0-.164-.527l-14.981-8.655a1.166 1.166 0 0 0-.565-.134Zm19.392-2.852-6.831-3.946a1.23 1.23 0 0 0-1.13 0l-6.787 3.946c-.314.188-.314.475 0 .654l6.841 3.947a1.233 1.233 0 0 0 1.12 0l6.787-3.947a.341.341 0 0 0 0-.645v-.01Zm10.337 5.973-6.831-3.946a1.293 1.293 0 0 0-1.121 0l-6.787 3.946c-.314.188-.314.475 0 .655l6.832 3.946a1.256 1.256 0 0 0 1.13 0l6.786-3.946a.351.351 0 0 0 .227-.328.353.353 0 0 0-.227-.327h-.009Zm10.356 5.982-6.832-3.946a1.229 1.229 0 0 0-1.13 0L118.73 85.5c-.313.188-.313.475 0 .655l6.841 3.946a1.238 1.238 0 0 0 1.121 0l6.787-3.946a.339.339 0 0 0 .231-.323.338.338 0 0 0-.231-.323V85.5Zm10.337 5.973-6.832-3.946a1.29 1.29 0 0 0-1.121 0l-6.786 3.946c-.314.189-.314.475 0 .655l6.831 3.946a1.24 1.24 0 0 0 1.121 0l6.787-3.946a.35.35 0 0 0 0-.655Zm10.543 6.099-6.832-3.946a1.233 1.233 0 0 0-1.12 0l-6.787 3.946a.345.345 0 0 0-.164.128.347.347 0 0 0 .164.526l6.832 3.947a1.255 1.255 0 0 0 1.129 0l6.787-3.947c.305-.179.305-.466 0-.645l-.009-.01Zm10.355 5.973-6.84-3.946a1.278 1.278 0 0 0-1.112 0l-6.787 3.946c-.314.188-.314.475 0 .655l6.841 3.946a1.235 1.235 0 0 0 1.12 0l6.796-3.946c.305-.18.305-.467 0-.655h-.018Zm10.355 5.982-6.831-3.946a1.203 1.203 0 0 0-1.121 0l-6.787 3.946c-.314.188-.314.475 0 .655l6.832 3.946a1.26 1.26 0 0 0 1.13 0l6.786-3.946c.305-.18.305-.467 0-.646l-.009-.009Zm10.338 5.937-6.832-3.946a1.293 1.293 0 0 0-1.121 0l-6.787 3.946c-.313.189-.313.476 0 .655l6.841 3.946a1.247 1.247 0 0 0 1.13 0l6.769-3.91a.356.356 0 0 0 .164-.128.355.355 0 0 0 0-.399.356.356 0 0 0-.164-.128v-.036Zm10.516 6.072-6.832-3.946a1.235 1.235 0 0 0-1.12 0l-6.796 3.946a.348.348 0 0 0 0 .655l6.832 3.946a1.235 1.235 0 0 0 1.12 0l6.796-3.946a.342.342 0 0 0 0-.646v-.009Zm10.337 5.973-6.831-3.946a1.298 1.298 0 0 0-1.121 0l-6.787 3.946a.347.347 0 0 0-.226.328.347.347 0 0 0 .226.327l6.832 3.946a1.256 1.256 0 0 0 1.129 0l6.787-3.946c.314-.179.305-.466 0-.655h-.009Zm10.355 5.982-6.831-3.946a1.214 1.214 0 0 0-1.121 0l-6.796 3.946a.347.347 0 0 0-.226.328.347.347 0 0 0 .226.327l6.832 3.946a1.242 1.242 0 0 0 1.121 0l6.795-3.946a.337.337 0 0 0 .232-.323.34.34 0 0 0-.232-.323v-.009Zm10.329 5.982-6.832-3.946a1.273 1.273 0 0 0-1.112 0l-6.796 3.946a.352.352 0 0 0-.164.527.356.356 0 0 0 .164.128l6.832 3.946a1.247 1.247 0 0 0 1.13 0l6.787-3.946c.313-.179.304-.475 0-.655h-.009Zm8.078 13.166 6.786-3.946a.337.337 0 0 0 .232-.323.339.339 0 0 0-.232-.323l-6.831-3.946a1.243 1.243 0 0 0-1.121 0l-6.787 3.946c-.314.18-.314.467 0 .646l6.832 3.946a1.219 1.219 0 0 0 1.13 0h-.009Zm-11.96 6.942 6.795-3.946a.354.354 0 0 0 .165-.128.355.355 0 0 0 0-.398.35.35 0 0 0-.165-.129l-6.831-3.946a1.266 1.266 0 0 0-1.121 0l-6.787 3.946c-.314.18-.305.467 0 .646l6.832 3.946a1.239 1.239 0 0 0 1.121 0l-.009.009Zm-9.549 5.552 6.796-3.946c.305-.18.296-.476 0-.655l-10.534-6.081a1.234 1.234 0 0 0-1.13 0l-6.787 3.946c-.314.18-.305.476 0 .655l10.535 6.09a1.256 1.256 0 0 0 1.129 0l-.009-.009Zm-9.512 5.542 6.796-3.946c.314-.179.305-.475 0-.655l-12.937-7.47a1.25 1.25 0 0 0-1.13 0l-6.787 3.946a.351.351 0 0 0-.164.526c.04.059.098.103.164.129l12.937 7.47a1.23 1.23 0 0 0 1.121 0Zm-9.539 5.57 6.787-3.946a.352.352 0 0 0 .164-.527.356.356 0 0 0-.164-.128l-17.68-10.215a1.247 1.247 0 0 0-1.13 0l-6.787 3.946c-.314.179-.305.475 0 .655l17.689 10.215a1.242 1.242 0 0 0 1.121 0Zm-21.392-.843 10.893 6.278a1.26 1.26 0 0 0 1.13 0l6.787-3.946a.347.347 0 0 0 .226-.328.351.351 0 0 0-.226-.327l-10.893-6.278a1.262 1.262 0 0 0-1.13 0l-6.787 3.946a.351.351 0 0 0-.164.527c.04.058.098.103.164.128Zm-9.476-5.48 6.831 3.946a1.25 1.25 0 0 0 1.13 0l6.787-3.946a.351.351 0 0 0 .164-.526.347.347 0 0 0-.164-.129l-6.841-3.946a1.235 1.235 0 0 0-1.121 0l-6.786 3.946a.339.339 0 0 0-.232.323.34.34 0 0 0 .232.323v.009Zm-9.567-5.578 6.832 3.946a1.242 1.242 0 0 0 1.121 0l6.787-3.946a.353.353 0 0 0 .226-.328.347.347 0 0 0-.226-.327l-6.832-3.946a1.247 1.247 0 0 0-1.13 0l-6.786 3.946a.354.354 0 0 0-.165.128.355.355 0 0 0 0 .398.356.356 0 0 0 .165.129h.008Zm-9.53-5.498 6.841 3.946a1.235 1.235 0 0 0 1.121 0l6.786-3.946a.35.35 0 0 0 0-.655l-6.831-3.946a1.243 1.243 0 0 0-1.121 0l-6.787 3.946a.346.346 0 0 0-.168.124.346.346 0 0 0 0 .398.346.346 0 0 0 .168.124l-.009.009Zm-57.218-33.059 54.618 31.543a1.243 1.243 0 0 0 1.121 0l6.787-3.946a.351.351 0 0 0 .164-.527.351.351 0 0 0-.164-.128l-54.618-31.543a1.259 1.259 0 0 0-1.13 0l-6.786 3.947c-.305.179-.305.466 0 .654h.008Zm-10.059-5.811 6.832 3.946a1.24 1.24 0 0 0 1.12 0l6.788-3.946a.354.354 0 0 0 .226-.328.351.351 0 0 0-.227-.327l-6.831-3.946a1.273 1.273 0 0 0-1.13 0l-6.787 3.946c-.305.179-.305.466 0 .646l.01.009Zm-9.71-5.615 6.832 3.946a1.28 1.28 0 0 0 1.121 0l6.787-3.946a.352.352 0 0 0 .226-.327.349.349 0 0 0-.226-.328l-6.832-3.946a1.259 1.259 0 0 0-1.13 0l-6.786 3.946c-.314.18-.305.467 0 .655h.009Zm-9.7-5.596 6.832 3.946c.083.042.17.075.26.099.101.008.203.008.305 0 .196.003.39-.043.564-.135l6.787-3.946a.351.351 0 0 0 .164-.527.351.351 0 0 0-.164-.128l-6.832-3.946a1.24 1.24 0 0 0-1.12 0l-6.787 3.946a.62.62 0 0 0-.18.153c-.107.17-.053.367.18.502l-.009.036Z" stroke="#fff" stroke-width=".5" stroke-linejoin="bevel"/><path d="m270.695 12.441-5.953 3.409M277.5 25.204l-5.953 3.408" stroke="#fff" stroke-width=".471" stroke-linejoin="round"/><path d="M248.676 69.689V55.886l-12.014-6.942v13.812l12.014 6.933Zm-12.292-21.65 12.677 7.3a.707.707 0 0 1 .314.547v14.538c0 .197-.152.278-.323.18l-12.65-7.301a.723.723 0 0 1-.314-.547V48.209c0-.198.144-.278.323-.17M190.436 22.97l37.019 21.382a.714.714 0 0 1 .314.556c0 .197-.144.278-.323.17l-37.019-21.372a.695.695 0 0 1-.313-.547c0-.206.152-.287.322-.188ZM190.418 28.765l37.019 21.38a.67.67 0 0 1 .313.548c0 .206-.143.287-.313.188L190.418 29.5a.714.714 0 0 1-.314-.547c0-.206.144-.287.314-.188ZM190.401 34.54l37.018 21.382a.68.68 0 0 1 .323.547c0 .206-.144.287-.323.18l-37.018-21.373a.728.728 0 0 1-.314-.556c0-.206.143-.278.314-.18ZM248.613 92.469V78.666L236.6 71.725v13.802l12.022 6.942h-.009Zm-12.282-21.66 12.641 7.301a.706.706 0 0 1 .323.556l-.045 14.53c0 .206-.144.287-.323.188l-12.641-7.3a.706.706 0 0 1-.323-.557l.045-14.538c0-.197.143-.287.323-.18ZM190.373 45.752l37.01 21.381a.7.7 0 0 1 .323.556c0 .198-.144.278-.323.17l-37.018-21.38a.684.684 0 0 1-.314-.539c0-.206.143-.287.322-.188ZM190.356 51.581l37.018 21.372a.724.724 0 0 1 .314.556c0 .198-.143.278-.323.18l-37.018-21.381a.703.703 0 0 1-.314-.548.194.194 0 0 1 .099-.201.198.198 0 0 1 .224.022ZM190.338 57.33l37.018 21.381a.681.681 0 0 1 .314.556c0 .198-.144.278-.314.18l-37.018-21.382a.685.685 0 0 1-.314-.547c0-.206.143-.287.314-.188ZM248.542 115.259l.044-13.803-12.013-6.942v13.812l11.969 6.933Zm-12.283-21.65 12.641 7.3a.699.699 0 0 1 .323.556l-.045 14.529c0 .206-.143.278-.323.18l-12.641-7.301a.699.699 0 0 1-.323-.547l.045-14.592c0-.206.144-.287.323-.18M190.302 68.532l37.018 21.382a.7.7 0 0 1 .323.547c0 .197-.144.287-.323.18l-37.018-21.382a.696.696 0 0 1-.314-.547c0-.198.143-.278.314-.18ZM190.284 74.326 227.302 95.7a.705.705 0 0 1 .323.547c0 .206-.143.287-.323.188l-37.018-21.381a.704.704 0 0 1-.314-.547c0-.198.144-.287.314-.18ZM190.275 80.11l37.018 21.382a.712.712 0 0 1 .314.547c0 .206-.143.287-.323.179l-37.018-21.372a.724.724 0 0 1-.314-.556c0-.198.152-.278.323-.18Z" fill="#fff"/><path d="m256.512 127.42-.314-.18.314.18Zm-.278-.502.215-73.74-72.925-42.154-.206 73.74 72.916 42.154ZM183.21 10.145l73.517 42.476a.731.731 0 0 1 .224.242c.06.091.094.197.099.305l-.215 74.485a.204.204 0 0 1-.09.197.217.217 0 0 1-.116.033.218.218 0 0 1-.117-.033l-73.517-42.475a.657.657 0 0 1-.224-.243.668.668 0 0 1-.09-.304l.207-74.44a.223.223 0 0 1 .098-.206.234.234 0 0 1 .224 0M256.754 41.563l-.314-.18.314.18Zm-.314-.547V28.747L117.081-51.765v12.27L256.44 41.015ZM116.776-52.68 256.799 28.2c.092.059.168.139.224.233a.631.631 0 0 1 .09.314v13.005a.249.249 0 0 1-.09.206.226.226 0 0 1-.233 0L116.731-38.94a.657.657 0 0 1-.224-.242.569.569 0 0 1-.09-.305V-52.49a.234.234 0 0 1 .021-.117.234.234 0 0 1 .078-.09.224.224 0 0 1 .224 0M176.513 81.178l-.323-.188.323.188Zm-.323-.556.251-73.704-39.753-22.951-.206 73.74 39.744 22.951-.036-.036Zm-39.851-97.57 40.389 23.319c.092.059.169.139.224.233.059.094.09.203.09.314l-.206 74.44a.202.202 0 0 1-.019.113.202.202 0 0 1-.08.084.214.214 0 0 1-.224 0l-40.389-23.319a.668.668 0 0 1-.314-.538l.215-74.44a.213.213 0 0 1 .09-.206.23.23 0 0 1 .224 0ZM130.054 54.38l-.323-.19.323.19Zm-.323-.557.206-73.74-15.241-8.799-.206 73.74 15.241 8.8Zm-15.34-83.409 15.869 9.175a.625.625 0 0 1 .224.234.598.598 0 0 1 .09.305l-.206 74.44a.248.248 0 0 1-.09.206.205.205 0 0 1-.224 0l-15.878-9.166a.67.67 0 0 1-.314-.538l.215-74.44a.22.22 0 0 1 .02-.11.221.221 0 0 1 .07-.088.224.224 0 0 1 .224 0" fill="#fff"/><path d="m145.761-2.831 25.74 14.87a.706.706 0 0 1 .323.556c0 .206-.143.278-.323.18l-25.74-14.87a.7.7 0 0 1-.322-.548c0-.206.143-.287.322-.188ZM141.476.505l29.989 17.327a.7.7 0 0 1 .323.547c0 .207-.143.287-.323.189L141.476 1.24a.69.69 0 0 1-.314-.547c0-.206.143-.287.314-.188ZM145.725 9.527l25.74 14.87a.7.7 0 0 1 .323.548c0 .206-.143.287-.323.179l-25.74-14.861a.716.716 0 0 1-.322-.556c0-.197.143-.278.322-.18ZM141.476 12.863l29.998 17.328a.69.69 0 0 1 .314.547c0 .197-.143.278-.323.18L141.476 13.59a.69.69 0 0 1-.314-.547c0-.197.143-.278.314-.18ZM117.681-.868l9.136 5.274a.657.657 0 0 1 .314.538c0 .206-.143.287-.314.188L117.681-.15a.664.664 0 0 1-.224-.235.662.662 0 0 1-.089-.312c0-.198.143-.278.313-.18M145.618 48.137l25.74 14.861a.716.716 0 0 1 .322.556c0 .197-.143.278-.322.18l-25.74-14.844a.7.7 0 0 1-.323-.547c0-.206.143-.287.323-.18M141.35 51.465l29.99 17.327a.7.7 0 0 1 .323.556c0 .198-.144.278-.323.17L141.35 52.2a.695.695 0 0 1-.313-.547c0-.206.143-.287.313-.188Z" fill="#fff"/></g><defs><linearGradient id="c" x1="357.338" y1="36.906" x2="140.531" y2="202.184" gradientUnits="userSpaceOnUse"><stop stop-color="#fff"/><stop offset="1" stop-color="#FEFEFE"/></linearGradient><linearGradient id="d" x1="365.16" y1="34.923" x2="145.019" y2="204.02" gradientUnits="userSpaceOnUse"><stop stop-color="#fff"/><stop offset="1" stop-color="#FEFEFE"/></linearGradient><linearGradient id="f" x1="404.715" y1="135.714" x2="265.54" y2="376.066" gradientUnits="userSpaceOnUse"><stop stop-color="#fff"/><stop offset="1" stop-color="#FEFEFE"/></linearGradient><linearGradient id="g" x1="267.437" y1="134.389" x2="48.987" y2="261.903" gradientUnits="userSpaceOnUse"><stop stop-color="#DADAF9"/><stop offset="1" stop-color="#FFF0F9" stop-opacity=".56"/></linearGradient><filter id="b" x="75.232" y="-100.517" width="221.408" height="294.52" filterUnits="userSpaceOnUse" color-interpolation-filters="sRGB"><feFlood flood-opacity="0" result="BackgroundImageFix"/><feGaussianBlur in="BackgroundImageFix" stdDeviation="11.958"/><feComposite in2="SourceAlpha" operator="in" result="effect1_backgroundBlur_2919_1202"/><feColorMatrix in="SourceAlpha" values="0 0 0 0 0 0 0 0 0 0 0 0 0 0 0 0 0 0 127 0" result="hardAlpha"/><feOffset dy="33.806"/><feGaussianBlur stdDeviation="4.892"/><feComposite in2="hardAlpha" operator="out"/><feColorMatrix values="0 0 0 0 0.122778 0 0 0 0 0.389526 0 0 0 0 0.866667 0 0 0 0.18 0"/><feBlend in2="effect1_backgroundBlur_2919_1202" result="effect2_dropShadow_2919_1202"/><feBlend in="SourceGraphic" in2="effect2_dropShadow_2919_1202" result="shape"/></filter><filter id="e" x="-35.98" y="30.476" width="327.134" height="230.15" filterUnits="userSpaceOnUse" color-interpolation-filters="sRGB"><feFlood flood-opacity="0" result="BackgroundImageFix"/><feGaussianBlur in="BackgroundImageFix" stdDeviation="11.958"/><feComposite in2="SourceAlpha" operator="in" result="effect1_backgroundBlur_2919_1202"/><feColorMatrix in="SourceAlpha" values="0 0 0 0 0 0 0 0 0 0 0 0 0 0 0 0 0 0 127 0" result="hardAlpha"/><feOffset dy="33.806"/><feGaussianBlur stdDeviation="4.892"/><feComposite in2="hardAlpha" operator="out"/><feColorMatrix values="0 0 0 0 0.122778 0 0 0 0 0.389526 0 0 0 0 0.866667 0 0 0 0.18 0"/><feBlend in2="effect1_backgroundBlur_2919_1202" result="effect2_dropShadow_2919_1202"/><feBlend in="SourceGraphic" in2="effect2_dropShadow_2919_1202" result="shape"/></filter><clipPath id="a"><rect x="1" y="1" width="300" height="129" rx="15" fill="#fff"/></clipPath></defs></svg>