<svg width="40" height="52" viewBox="0 0 40 52" fill="none" xmlns="http://www.w3.org/2000/svg">
<path d="M24.8636 1H5.13636C2.85191 1 1 2.85191 1 5.13636V47.1364C1 49.4208 2.85191 51.2727 5.13636 51.2727H24.8636C27.1481 51.2727 29 49.4208 29 47.1364V5.13636C29 2.85191 27.1481 1 24.8636 1Z" stroke="#14161D"/>
<path fill-rule="evenodd" clip-rule="evenodd" d="M8.83569 22.7961C8.83569 22.5042 9.08627 22.2676 9.39538 22.2676H26.1861C26.4952 22.2676 26.7458 22.5042 26.7458 22.7961C26.7458 23.0881 26.4952 23.3248 26.1861 23.3248H9.39538C9.08627 23.3248 8.83569 23.0881 8.83569 22.7961ZM9.95507 24.9105C9.95507 24.6186 10.2056 24.382 10.5148 24.382H19.4698C19.7789 24.382 20.0295 24.6186 20.0295 24.9105C20.0295 25.2025 19.7789 25.4392 19.4698 25.4392H10.5148C10.2056 25.4392 9.95507 25.2025 9.95507 24.9105ZM9.39538 26.4964C9.08627 26.4964 8.83569 26.733 8.83569 27.0249C8.83569 27.3169 9.08627 27.5535 9.39538 27.5535H25.0667C25.3758 27.5535 25.6264 27.3169 25.6264 27.0249C25.6264 26.733 25.3758 26.4964 25.0667 26.4964H9.39538ZM9.95507 29.1393C9.95507 28.8474 10.2056 28.6107 10.5148 28.6107H17.231C17.5402 28.6107 17.7907 28.8474 17.7907 29.1393C17.7907 29.4313 17.5402 29.6679 17.231 29.6679H10.5148C10.2056 29.6679 9.95507 29.4313 9.95507 29.1393ZM10.5148 30.7251C10.2056 30.7251 9.95507 30.9618 9.95507 31.2537C9.95507 31.5457 10.2056 31.7823 10.5148 31.7823H17.231C17.5402 31.7823 17.7907 31.5457 17.7907 31.2537C17.7907 30.9618 17.5402 30.7251 17.231 30.7251H10.5148Z" fill="#E4E8F4"/>
<path d="M4.28675 26.9846C4.09949 26.9846 3.94812 27.1276 3.94812 27.3044C3.94812 27.4813 4.09949 27.6242 4.28675 27.6242C4.68057 27.6242 4.99109 27.7442 5.23591 27.9908C5.95075 28.7119 5.85459 30.2253 5.85291 30.2627V34.3404C5.85291 35.3673 6.15498 36.1595 6.74993 36.6929C7.46409 37.3339 8.36553 37.3793 8.60525 37.3793C8.63843 37.3793 8.65875 37.378 8.66418 37.378C8.85112 37.3694 8.99468 37.2188 8.98488 37.0419C8.97503 36.8647 8.81283 36.7285 8.62898 36.739C8.62013 36.7429 7.82134 36.7723 7.21621 36.2292C6.76039 35.8208 6.53014 35.185 6.53014 34.3404L6.52947 30.2842C6.5349 30.2109 6.64734 28.4791 5.73168 27.5552C5.63721 27.4599 5.53495 27.3757 5.42654 27.3048C5.53495 27.2331 5.63721 27.15 5.73168 27.054C6.64734 26.1288 6.5349 24.3979 6.53014 24.3464V20.2688C6.53014 19.4273 6.75905 18.7938 7.21078 18.3847C7.80914 17.843 8.61879 17.8686 8.63066 17.8698C8.81726 17.8807 8.97503 17.7432 8.98488 17.5669C8.99401 17.3904 8.85078 17.2404 8.66418 17.2308C8.61745 17.2315 7.56366 17.1861 6.7506 17.9162C6.15498 18.4503 5.85358 19.2421 5.85358 20.2688L5.85426 24.3678C5.8847 24.7891 5.8326 26.0152 5.23759 26.6168C4.99177 26.8643 4.68125 26.9846 4.28675 26.9846Z" fill="#3980FF"/>
<path d="M7.38623 1H22.6139C22.4595 2.07934 21.5312 2.90909 20.4092 2.90909H9.59098C8.46894 2.90909 7.54068 2.07934 7.38623 1Z" fill="#14161D" stroke="#14161D"/>
<path d="M33.0909 10H24.9091C21.6456 10 19 12.6456 19 15.9091V24.0909C19 27.3544 21.6456 30 24.9091 30H33.0909C36.3544 30 39 27.3544 39 24.0909V15.9091C39 12.6456 36.3544 10 33.0909 10Z" fill="#F4F6FA" stroke="#14161D"/>
<path d="M33.2353 12H24.7647C22.6855 12 21 13.6855 21 15.7647V24.2353C21 26.3145 22.6855 28 24.7647 28H33.2353C35.3145 28 37 26.3145 37 24.2353V15.7647C37 13.6855 35.3145 12 33.2353 12Z" fill="#E4E8F4"/>
<path d="M28.3 17.7998V17.4998C28.3 16.8371 28.8373 16.2998 29.5 16.2998C30.1628 16.2998 30.7 16.8371 30.7 17.4998V17.7998M25.3 19.8998C27.5235 22.4409 31.4766 22.4409 33.7 19.8998M25.9 18.0998H33.1C33.4314 18.0998 33.7 18.3684 33.7 18.6998V24.0998C33.7 24.4312 33.4314 24.6998 33.1 24.6998H25.9C25.5687 24.6998 25.3 24.4312 25.3 24.0998V18.6998C25.3 18.3684 25.5687 18.0998 25.9 18.0998Z" stroke="black"/>
</svg>
