<svg width="221" height="56" viewBox="0 0 221 56" fill="none" xmlns="http://www.w3.org/2000/svg">
<path d="M28.907 12.7461L19.7611 20.6598V24.8885L28.907 34.2822V12.7461Z" fill="url(#paint0_linear_2919_625)"/>
<path d="M81.9229 16.9749C81.3531 17.428 80.5135 17.6696 79.434 17.6696C78.2945 17.6696 77.3949 17.428 76.6752 16.9145C75.9855 16.401 75.5058 15.7365 75.2359 14.8303L75.026 14.1054L72.5371 15.5553L72.687 16.0083C73.1668 17.3978 73.9765 18.5153 75.1759 19.3007C76.3454 20.086 77.7548 20.4787 79.374 20.4787C81.1732 20.4787 82.6725 19.9954 83.782 19.059C84.9515 18.0925 85.5212 16.7937 85.5212 15.223C85.5212 14.7397 85.4613 14.2564 85.3113 13.8336C85.1914 13.4107 85.0415 13.0785 84.8615 12.7764C84.6816 12.4441 84.3818 12.1421 83.9919 11.8098C83.6321 11.538 83.3322 11.3266 83.0923 11.1755C82.8225 10.9943 82.4326 10.8131 81.8929 10.6016C81.3831 10.3902 80.9933 10.2392 80.7234 10.1486C80.4535 10.058 80.0337 9.90693 79.434 9.6955C78.2045 9.30283 77.305 8.87996 76.7952 8.5175C76.3754 8.21546 76.1955 7.79259 76.1955 7.15828C76.1955 6.43336 76.4353 5.88967 76.9151 5.49701C77.4249 5.07414 78.1446 4.8627 79.0142 4.8627C80.7234 4.8627 81.8629 5.64803 82.5226 7.2489L82.7625 7.853L85.1914 6.46357L84.9815 5.98029C84.4717 4.8325 83.7221 3.89615 82.6725 3.14102C81.623 2.3859 80.3936 2.02344 78.9842 2.02344C77.4249 2.02344 76.0755 2.47651 74.996 3.38266C73.8865 4.31901 73.3168 5.58762 73.3168 7.18849C73.3168 8.84976 74.0364 10.1184 75.4758 10.9943C76.0755 11.387 77.215 11.8401 79.0142 12.4441C80.3936 12.8972 81.3831 13.3503 81.9828 13.743C82.4626 14.0752 82.6725 14.5585 82.6725 15.223C82.7325 15.9781 82.4626 16.5218 81.9229 16.9749Z" fill="url(#paint1_linear_2919_625)"/>
<path d="M94.0374 20.4485C95.9265 20.4485 97.5458 19.784 98.8652 18.4852C100.185 17.1864 100.844 15.5553 100.844 13.6222C100.844 11.7193 100.185 10.058 98.8652 8.75922C97.5458 7.46041 95.9265 6.7959 94.0374 6.7959C92.1482 6.7959 90.529 7.46041 89.2096 8.75922C87.8902 10.058 87.2305 11.6891 87.2305 13.6222C87.2305 15.5251 87.8902 17.1864 89.2096 18.4852C90.529 19.8142 92.1482 20.4485 94.0374 20.4485ZM94.0374 9.51435C95.1769 9.51435 96.1364 9.90701 96.9161 10.6923C97.6957 11.5079 98.0856 12.4442 98.0856 13.6222C98.0856 14.8002 97.6957 15.7366 96.9161 16.5521C96.1364 17.3676 95.1769 17.7301 94.0374 17.7301C92.8979 17.7301 91.9383 17.3374 91.1587 16.5521C90.379 15.7366 89.9892 14.8002 89.9892 13.6222C89.9892 12.4442 90.379 11.5079 91.1587 10.6923C91.9383 9.90701 92.8679 9.51435 94.0374 9.51435Z" fill="url(#paint2_linear_2919_625)"/>
<path d="M103.423 20.1766H106.152V9.81629H109.54V7.09785H106.152C106.182 6.1917 106.392 5.55739 106.782 5.22514C107.201 4.83247 107.921 4.68145 108.911 4.77206L109.54 4.83247V2.11403L109.001 2.08382C107.261 1.963 105.852 2.35567 104.892 3.26181C103.933 4.16796 103.453 5.43657 103.423 7.09785H101.414V9.81629H103.423V20.1766Z" fill="url(#paint3_linear_2919_625)"/>
<path d="M114.038 19.7231C114.668 20.1158 115.508 20.297 116.497 20.297C117.007 20.297 117.547 20.2366 118.147 20.146L118.656 20.0554V17.5484L118.027 17.5786C117.277 17.6088 116.647 17.6088 116.167 17.6088C115.838 17.6088 115.598 17.5182 115.448 17.3671C115.358 17.2765 115.238 17.0349 115.238 16.3704V9.8159H118.626V7.09746H115.238V3.56348L112.509 4.40922V7.09746H108.851V9.8159H112.509V16.4308C112.509 18.0317 113.049 19.119 114.038 19.7231Z" fill="url(#paint4_linear_2919_625)"/>
<path d="M131.94 17.4583L129.541 16.0386C129.271 16.5521 128.852 16.9448 128.282 17.277C127.712 17.6093 127.022 17.7603 126.243 17.7603C125.103 17.7603 124.204 17.4583 123.454 16.8239C122.884 16.3407 122.494 15.7668 122.285 15.0116H132.48L132.54 14.468C132.57 14.1357 132.6 13.8639 132.6 13.6826C132.6 11.8401 132 10.2393 130.831 8.88004C129.631 7.52082 128.072 6.7959 126.153 6.7959C124.174 6.7959 122.554 7.46041 121.295 8.75922C120.036 10.058 119.406 11.6891 119.406 13.6222C119.406 15.5855 120.066 17.2468 121.325 18.5154C122.584 19.8142 124.264 20.4485 126.273 20.4485C127.502 20.4485 128.642 20.1767 129.631 19.633C130.591 19.1195 131.37 18.3644 131.94 17.4583ZM126.123 9.51435C127.052 9.51435 127.862 9.81639 128.552 10.4205C129.092 10.9038 129.481 11.5079 129.661 12.2932H122.285C122.494 11.5683 122.854 10.9642 123.424 10.4809C124.144 9.8466 125.043 9.51435 126.123 9.51435Z" fill="url(#paint5_linear_2919_625)"/>
<path d="M137.308 12.9578C137.308 11.7799 137.608 10.9039 138.177 10.3904C138.777 9.84674 139.527 9.57489 140.456 9.57489H141.056V6.85645H140.456C139.167 6.85645 138.118 7.1887 137.308 7.88341V7.03767H134.579V20.1164H137.308V12.9578Z" fill="url(#paint6_linear_2919_625)"/>
<path d="M145.434 7.09766H142.705V20.1764H145.434V7.09766Z" fill="url(#paint7_linear_2919_625)"/>
<path d="M144.085 5.76895C144.565 5.76895 144.984 5.58772 145.314 5.25546C145.644 4.92321 145.824 4.50034 145.824 4.01706C145.824 3.53378 145.644 3.11091 145.314 2.77866C144.654 2.11415 143.545 2.11415 142.885 2.77866C142.555 3.11091 142.375 3.53378 142.375 4.01706C142.375 4.50034 142.555 4.92321 142.885 5.25546C143.185 5.58772 143.605 5.76895 144.085 5.76895Z" fill="url(#paint8_linear_2919_625)"/>
<path d="M159.198 8.75922C157.879 7.46041 156.259 6.7959 154.37 6.7959C152.481 6.7959 150.862 7.46041 149.542 8.75922C148.223 10.058 147.563 11.6891 147.563 13.6222C147.563 15.5251 148.223 17.1864 149.542 18.4852C150.862 19.784 152.481 20.4485 154.37 20.4485C156.259 20.4485 157.879 19.784 159.198 18.4852C160.517 17.1864 161.177 15.5553 161.177 13.6222C161.177 11.7193 160.517 10.0882 159.198 8.75922ZM154.37 17.7603C153.231 17.7603 152.271 17.3676 151.491 16.5823C150.712 15.7668 150.322 14.8304 150.322 13.6524C150.322 12.4744 150.712 11.5381 151.491 10.7225C152.271 9.90701 153.231 9.54455 154.37 9.54455C155.51 9.54455 156.469 9.93721 157.249 10.7225C158.029 11.5381 158.418 12.4744 158.418 13.6524C158.418 14.8304 158.029 15.7668 157.249 16.5823C156.469 17.3676 155.54 17.7603 154.37 17.7603Z" fill="url(#paint9_linear_2919_625)"/>
<path d="M85.1914 22.5625H72.2073V25.3112H77.275V40.4136H80.1237V25.3112H85.1914V22.5625Z" fill="black"/>
<path d="M90.7689 27.0332C88.7898 27.0332 87.1705 27.6977 85.9111 28.9965C84.6517 30.2953 84.022 31.9264 84.022 33.8595C84.022 35.8228 84.6817 37.4841 85.9411 38.7527C87.2005 40.0515 88.8798 40.6858 90.8889 40.6858C92.1183 40.6858 93.2578 40.414 94.2473 39.8703C95.2369 39.3266 96.0165 38.6017 96.5863 37.6653L94.1874 36.2457C93.9175 36.7592 93.4977 37.1519 92.9279 37.4841C92.3582 37.8164 91.6685 37.9674 90.8889 37.9674C89.7494 37.9674 88.8498 37.6653 88.1001 37.031C87.5304 36.5478 87.1406 35.9739 86.9307 35.2187H97.126L97.186 34.6751C97.216 34.3428 97.246 34.071 97.246 33.8897C97.246 32.0472 96.6463 30.4464 95.4768 29.0871C94.2773 27.7279 92.6881 27.0332 90.7689 27.0332ZM90.7689 29.7516C91.6985 29.7516 92.5081 30.0537 93.1978 30.6578C93.7376 31.1411 94.1274 31.7452 94.3073 32.5305H86.9307C87.1406 31.8056 87.5004 31.2015 88.0701 30.7182C88.7898 30.0537 89.6894 29.7516 90.7689 29.7516Z" fill="black"/>
<path d="M108.791 35.9437C108.431 36.578 107.981 37.0613 107.381 37.4237C106.782 37.7862 106.092 37.9674 105.312 37.9674C104.173 37.9674 103.213 37.5747 102.434 36.7894C101.654 35.9739 101.264 35.0375 101.264 33.8595C101.264 32.6815 101.654 31.7452 102.434 30.9296C103.213 30.1141 104.173 29.7516 105.312 29.7516C106.092 29.7516 106.782 29.9329 107.381 30.2953C107.981 30.6578 108.401 31.1109 108.671 31.715L108.941 32.3191L111.25 30.9901L111.04 30.5068C110.56 29.4496 109.81 28.6039 108.761 27.9696C107.741 27.3655 106.572 27.0332 105.312 27.0332C103.393 27.0332 101.744 27.6977 100.454 28.9965C99.1651 30.2953 98.5054 31.9264 98.5054 33.8595C98.5054 35.7624 99.1651 37.3935 100.454 38.7225C101.744 40.0213 103.393 40.6858 105.312 40.6858C106.572 40.6858 107.711 40.3838 108.761 39.7797C109.81 39.1756 110.59 38.3299 111.13 37.2727L111.4 36.7592L109.091 35.4L108.791 35.9437Z" fill="black"/>
<path d="M119.076 27.0328C117.727 27.0328 116.587 27.4255 115.688 28.1806V22.5625H112.959V40.4136H115.688V33.5873C115.688 32.2583 115.987 31.2615 116.587 30.6574C117.187 30.0533 117.967 29.7513 118.926 29.7513C119.796 29.7513 120.425 29.9929 120.875 30.446C121.325 30.9293 121.535 31.5938 121.535 32.4999V40.3834H124.264V32.4999C124.264 30.8689 123.784 29.5398 122.854 28.5431C121.955 27.5463 120.695 27.0328 119.076 27.0328Z" fill="black"/>
<path d="M132.99 27.0332C131.64 27.0332 130.501 27.4259 129.601 28.181V27.3353H126.873V40.414H129.601V33.5877C129.601 32.2587 129.901 31.2619 130.501 30.6578C131.101 30.0537 131.88 29.7516 132.84 29.7516C133.709 29.7516 134.339 29.9933 134.789 30.4464C135.239 30.9296 135.449 31.5942 135.449 32.5003V40.3838H138.177V32.5003C138.177 30.8692 137.698 29.5402 136.768 28.5435C135.868 27.5467 134.579 27.0332 132.99 27.0332Z" fill="black"/>
<path d="M146.844 27.0332C144.954 27.0332 143.335 27.6977 142.016 28.9965C140.696 30.2953 140.037 31.9264 140.037 33.8595C140.037 35.7624 140.696 37.4237 142.016 38.7225C143.335 40.0213 144.954 40.6858 146.844 40.6858C148.733 40.6858 150.352 40.0213 151.671 38.7225C152.991 37.4237 153.65 35.7926 153.65 33.8595C153.65 31.9566 152.991 30.2953 151.671 28.9965C150.352 27.6977 148.733 27.0332 146.844 27.0332ZM146.844 37.9674C145.704 37.9674 144.744 37.5747 143.965 36.7894C143.185 35.9739 142.795 35.0375 142.795 33.8595C142.795 32.6815 143.185 31.7452 143.965 30.9296C144.744 30.1141 145.704 29.7516 146.844 29.7516C147.983 29.7516 148.943 30.1443 149.722 30.9296C150.502 31.7452 150.892 32.6815 150.892 33.8595C150.892 35.0375 150.502 35.9739 149.722 36.7894C148.943 37.5747 147.983 37.9674 146.844 37.9674Z" fill="black"/>
<path d="M158.508 21.8379H155.779V40.3837H158.508V21.8379Z" fill="black"/>
<path d="M167.444 27.0332C165.555 27.0332 163.936 27.6977 162.616 28.9965C161.297 30.2953 160.637 31.9264 160.637 33.8595C160.637 35.7624 161.297 37.4237 162.616 38.7225C163.936 40.0213 165.555 40.6858 167.444 40.6858C169.333 40.6858 170.953 40.0213 172.272 38.7225C173.591 37.4237 174.251 35.7926 174.251 33.8595C174.251 31.9566 173.591 30.2953 172.272 28.9965C170.953 27.6977 169.333 27.0332 167.444 27.0332ZM167.444 37.9674C166.305 37.9674 165.345 37.5747 164.565 36.7894C163.786 35.9739 163.396 35.0375 163.396 33.8595C163.396 32.6815 163.786 31.7452 164.565 30.9296C165.345 30.1141 166.305 29.7516 167.444 29.7516C168.584 29.7516 169.543 30.1443 170.323 30.9296C171.102 31.7452 171.492 32.6815 171.492 33.8595C171.492 35.0375 171.102 35.9739 170.323 36.7894C169.543 37.5747 168.584 37.9674 167.444 37.9674Z" fill="black"/>
<path d="M194.822 27.3047H192.093V40.3834H194.822V27.3047Z" fill="black"/>
<path d="M192.243 23.016C191.913 23.3482 191.733 23.7711 191.733 24.2544C191.733 24.7376 191.913 25.1605 192.243 25.4928C192.573 25.825 192.993 26.0063 193.472 26.0063C193.952 26.0063 194.372 25.825 194.702 25.4928C195.032 25.1605 195.212 24.7376 195.212 24.2544C195.212 23.7711 195.032 23.3482 194.702 23.016C194.012 22.3515 192.903 22.3515 192.243 23.016Z" fill="black"/>
<path d="M203.728 27.0332C201.749 27.0332 200.129 27.6977 198.87 28.9965C197.611 30.2953 196.981 31.9264 196.981 33.8595C196.981 35.8228 197.641 37.4841 198.9 38.7527C200.159 40.0515 201.839 40.6858 203.848 40.6858C205.077 40.6858 206.217 40.414 207.206 39.8703C208.196 39.3266 208.975 38.6017 209.545 37.6653L207.146 36.2457C206.876 36.7592 206.457 37.1519 205.887 37.4841C205.317 37.8164 204.627 37.9674 203.848 37.9674C202.708 37.9674 201.809 37.6653 201.059 37.031C200.489 36.5478 200.099 35.9739 199.89 35.2187H210.085L210.145 34.6751C210.175 34.3428 210.205 34.071 210.205 33.8897C210.205 32.0472 209.605 30.4464 208.436 29.0871C207.206 27.7279 205.617 27.0332 203.728 27.0332ZM203.728 29.7516C204.657 29.7516 205.467 30.0537 206.157 30.6578C206.696 31.1411 207.086 31.7452 207.266 32.5305H199.89C200.099 31.8056 200.459 31.2015 201.029 30.7182C201.749 30.0537 202.618 29.7516 203.728 29.7516Z" fill="black"/>
<path d="M220.13 34.2823C219.591 33.7084 218.931 33.2856 218.151 33.0439C217.462 32.8325 216.772 32.6211 216.082 32.4398C215.482 32.2888 214.943 32.0472 214.553 31.7753C214.253 31.5639 214.103 31.3222 214.103 30.99C214.103 30.5973 214.253 30.2953 214.583 30.0838C214.973 29.812 215.453 29.6912 215.992 29.6912C217.192 29.6912 217.911 30.114 218.271 30.99L218.541 31.6243L220.88 30.2349L220.64 29.7516C220.25 28.9058 219.621 28.2111 218.811 27.7278C218.001 27.2446 217.042 27.0029 215.992 27.0029C214.703 27.0029 213.593 27.3654 212.724 28.1205C211.824 28.8756 211.374 29.8422 211.374 30.99C211.374 31.9565 211.674 32.7419 212.244 33.3762C212.784 33.9501 213.443 34.3729 214.223 34.6146C214.913 34.826 215.602 35.0374 216.292 35.2187C216.892 35.3697 217.432 35.6113 217.821 35.8832C218.121 36.0946 218.271 36.3363 218.271 36.6685C218.271 37.1216 218.121 37.3934 217.791 37.6049C217.372 37.8465 216.802 37.9975 216.142 37.9975C215.482 37.9975 214.883 37.8465 214.403 37.5445C213.953 37.2726 213.623 36.88 213.443 36.3967L213.204 35.7322L210.835 37.1518L211.015 37.6351C211.374 38.5714 212.004 39.3266 212.904 39.9005C213.803 40.4743 214.883 40.7462 216.112 40.7462C217.492 40.7462 218.661 40.3837 219.561 39.6588C220.49 38.9037 220.97 37.9069 220.97 36.7289C221 35.702 220.7 34.9166 220.13 34.2823Z" fill="black"/>
<path d="M186.515 27.305V28.5737C185.406 27.5467 184.027 27.0332 182.347 27.0332C180.518 27.0332 178.929 27.6977 177.61 29.0267C176.32 30.3557 175.66 31.9566 175.66 33.8595C175.66 35.7624 176.32 37.3935 177.61 38.6923C178.899 40.0213 180.488 40.6858 182.347 40.6858C184.027 40.6858 185.436 40.1724 186.515 39.1454V39.3266C186.515 40.3838 186.186 41.1993 185.526 41.8034C184.866 42.4075 183.907 42.7398 182.737 42.7398C181.088 42.7398 179.948 42.2565 179.289 41.3202L176.74 42.4377C177.849 44.4313 179.859 45.4582 182.737 45.4582C184.506 45.4582 186.036 44.9145 187.295 43.8574C188.585 42.77 189.244 41.2597 189.244 39.3568V27.305H186.515ZM185.346 36.7894C184.566 37.6049 183.607 37.9674 182.467 37.9674C181.328 37.9674 180.368 37.5747 179.589 36.7894C178.809 35.9739 178.419 35.0375 178.419 33.8595C178.419 32.6815 178.809 31.7452 179.589 30.9296C180.368 30.1141 181.328 29.7516 182.467 29.7516C183.607 29.7516 184.566 30.1443 185.346 30.9296C186.126 31.7452 186.515 32.6815 186.515 33.8595C186.515 35.0073 186.126 35.9739 185.346 36.7894Z" fill="black"/>
<path d="M28.9069 56L0 28H14.9932L28.9069 42.3172V56Z" fill="url(#paint10_linear_2919_625)"/>
<path d="M28.9069 0L0 28L7.64654 35.5512L28.9069 13.6828V0Z" fill="#3980FF"/>
<path d="M36.8833 43.2539L46.0292 35.3402V31.1115L36.8833 21.7178V43.2539Z" fill="url(#paint11_linear_2919_625)"/>
<path d="M36.8833 0L65.7902 28H50.827L36.8833 13.6828V0Z" fill="url(#paint12_linear_2919_625)"/>
<path d="M36.8833 56.0005L65.7902 28.0005L58.1737 20.4492L36.8833 42.3176V56.0005Z" fill="#3980FF"/>
<path d="M76.4354 53.1604V50.0794L74.9061 52.6167H74.5163L72.987 50.1096V53.1604H72.1774V48.5088H72.897L74.7262 51.5897L76.5254 48.5088H77.2151V53.1604H76.4354Z" fill="black"/>
<path d="M82.7325 51.5595C82.7325 52.6167 82.0429 53.1604 80.8734 53.1604H78.8943V48.5088H79.7339V50.0794H81.0233C82.1028 50.0794 82.7325 50.5627 82.7325 51.5595ZM81.8629 51.5897C81.8629 51.0158 81.4731 50.744 80.8134 50.744H79.7039V52.4958H80.8134C81.4731 52.4958 81.8629 52.1636 81.8629 51.5897ZM83.3923 48.5088H84.2319V53.1604H83.3923V48.5088Z" fill="black"/>
<path d="M92.0884 48.5088V53.1604H91.2488V49.2337H88.8499V53.1604H88.0103V48.5088H92.0884Z" fill="black"/>
<path d="M93.7375 48.5088H94.5772V51.8011L97.066 48.5088H97.8757V53.1604H97.0361V49.868L94.5472 53.1604H93.7375V48.5088Z" fill="black"/>
<path d="M105.402 48.5088V53.1604H99.465V48.5088H100.305V52.4354H102.014V48.5088H102.853V52.4354H104.563V48.5088H105.402Z" fill="black"/>
<path d="M110.5 52.4354V53.1604H107.052V48.5088H110.41V49.2337H107.891V50.4419H110.11V51.1668H107.891V52.4354H110.5Z" fill="black"/>
<path d="M116.017 53.1604V50.0794L114.488 52.6167H114.098L112.569 50.1096V53.1604H111.759V48.5088H112.479L114.308 51.5897L116.107 48.5088H116.797V53.1604H116.017Z" fill="black"/>
<path d="M122.315 51.197H121.445V53.1604H120.605V48.5088H121.445V50.4419H122.315L123.634 48.5088H124.534L122.944 50.7742L124.594 53.1604H123.634L122.315 51.197Z" fill="black"/>
<path d="M125.193 50.8344C125.193 49.445 126.243 48.4482 127.682 48.4482C129.122 48.4482 130.171 49.445 130.171 50.8344C130.171 52.2239 129.122 53.2206 127.682 53.2206C126.243 53.2206 125.193 52.1937 125.193 50.8344ZM129.302 50.8344C129.302 49.8981 128.612 49.2034 127.682 49.2034C126.753 49.2034 126.063 49.8981 126.063 50.8344C126.063 51.7708 126.753 52.4655 127.682 52.4655C128.582 52.4655 129.302 51.7708 129.302 50.8344Z" fill="black"/>
<path d="M135.869 52.4354V54.1571H135.089V53.1604H131.55V54.1571H130.741V52.4354H130.951C131.58 52.4052 131.73 51.3481 131.76 49.9888L131.82 48.5088H135.209V52.4354H135.869ZM132.03 52.4354H134.369V49.2337H132.57L132.54 50.0492C132.48 51.1064 132.39 52.0428 132.03 52.4354Z" fill="black"/>
<path d="M137.758 52.6472C137.758 52.7982 137.728 52.919 137.608 53.2211L137.278 54.1575H136.738L137.008 53.1305C136.828 53.0399 136.708 52.8888 136.708 52.6472C136.708 52.315 136.948 52.1035 137.248 52.1035C137.548 52.1035 137.758 52.315 137.758 52.6472Z" fill="black"/>
<path d="M142.855 51.197H141.986V53.1604H141.146V48.5088H141.986V50.4419H142.855L144.175 48.5088H145.074L143.485 50.7742L145.134 53.1604H144.175L142.855 51.197Z" fill="black"/>
<path d="M145.734 50.8344C145.734 49.445 146.784 48.4482 148.223 48.4482C149.662 48.4482 150.712 49.445 150.712 50.8344C150.712 52.2239 149.662 53.2206 148.223 53.2206C146.784 53.2206 145.734 52.1937 145.734 50.8344ZM149.842 50.8344C149.842 49.8981 149.153 49.2034 148.223 49.2034C147.293 49.2034 146.604 49.8981 146.604 50.8344C146.604 51.7708 147.293 52.4655 148.223 52.4655C149.123 52.4655 149.842 51.7708 149.842 50.8344Z" fill="black"/>
<path d="M155.24 49.2337H153.71V53.1604H152.871V49.2337H151.342V48.5088H155.24V49.2337Z" fill="black"/>
<path d="M155.9 50.8344C155.9 49.445 156.949 48.4482 158.388 48.4482C159.828 48.4482 160.877 49.445 160.877 50.8344C160.877 52.2239 159.828 53.2206 158.388 53.2206C156.949 53.2206 155.9 52.1937 155.9 50.8344ZM160.008 50.8344C160.008 49.8981 159.318 49.2034 158.388 49.2034C157.459 49.2034 156.769 49.8981 156.769 50.8344C156.769 51.7708 157.459 52.4655 158.388 52.4655C159.318 52.4655 160.008 51.7708 160.008 50.8344Z" fill="black"/>
<path d="M166.005 50.1701C166.005 51.197 165.255 51.8313 164.026 51.8313H162.976V53.1604H162.107V48.5088H163.996C165.255 48.5088 166.005 49.1431 166.005 50.1701ZM165.165 50.1701C165.165 49.5962 164.775 49.2337 164.026 49.2337H163.036V51.0762H164.026C164.775 51.0762 165.165 50.744 165.165 50.1701Z" fill="black"/>
<path d="M171.013 51.5595C171.013 52.6167 170.323 53.1604 169.153 53.1604H167.174V48.5088H168.014V50.0794H169.303C170.383 50.0794 171.013 50.5627 171.013 51.5595ZM170.143 51.5897C170.143 51.0158 169.753 50.744 169.093 50.744H167.984V52.4958H169.093C169.753 52.4958 170.143 52.1636 170.143 51.5897ZM171.672 48.5088H172.512V53.1604H171.672V48.5088Z" fill="black"/>
<path d="M174.161 48.5088H175.001V51.8012L177.49 48.5088H178.299V53.1604H177.46V49.8681L174.971 53.1604H174.161V48.5088ZM175.001 47.2402H175.601C175.601 47.5725 175.811 47.7537 176.2 47.7537C176.59 47.7537 176.8 47.5725 176.8 47.2402H177.4C177.4 47.8443 176.98 48.2068 176.2 48.2068C175.391 48.2068 175.001 47.8443 175.001 47.2402Z" fill="black"/>
<path d="M185.916 50.1701C185.916 51.197 185.166 51.8313 183.937 51.8313H182.887V53.1604H182.018V48.5088H183.907C185.136 48.5088 185.916 49.1431 185.916 50.1701ZM185.046 50.1701C185.046 49.5962 184.657 49.2337 183.907 49.2337H182.917V51.0762H183.907C184.657 51.0762 185.046 50.744 185.046 50.1701Z" fill="black"/>
<path d="M189.874 52.073H187.565L187.115 53.1604H186.216L188.285 48.5088H189.124L191.193 53.1604H190.294L189.874 52.073ZM189.574 51.4085L188.705 49.3847L187.835 51.4085H189.574Z" fill="black"/>
<path d="M192.273 48.5088H195.871V49.2337H193.113V50.3815H194.492C195.602 50.3815 196.201 50.8648 196.201 51.7407C196.201 52.6771 195.542 53.1906 194.372 53.1906H192.303V48.5088H192.273ZM194.312 52.4958C194.972 52.4958 195.332 52.224 195.332 51.7407C195.332 51.2574 195.002 51.0158 194.312 51.0158H193.113V52.4958H194.312Z" fill="black"/>
<path d="M197.101 50.8344C197.101 49.445 198.15 48.4482 199.59 48.4482C201.029 48.4482 202.079 49.445 202.079 50.8344C202.079 52.2239 201.029 53.2206 199.59 53.2206C198.15 53.2206 197.101 52.1937 197.101 50.8344ZM201.209 50.8344C201.209 49.8981 200.519 49.2034 199.59 49.2034C198.66 49.2034 197.97 49.8981 197.97 50.8344C197.97 51.7708 198.66 52.4655 199.59 52.4655C200.489 52.4655 201.209 51.7708 201.209 50.8344Z" fill="black"/>
<path d="M206.606 49.2337H205.077V53.1604H204.238V49.2337H202.708V48.5088H206.606V49.2337Z" fill="black"/>
<path d="M210.505 52.073H208.196L207.746 53.1604H206.876L208.946 48.5088H209.785L211.854 53.1604H210.955L210.505 52.073ZM210.235 51.4085L209.365 49.3847L208.496 51.4085H210.235Z" fill="black"/>
<path d="M216.382 52.4354V53.1604H212.904V48.5088H216.262V49.2337H213.743V50.4419H215.962V51.1668H213.743V52.4354H216.382Z" fill="black"/>
<path d="M221 49.2337H219.471V53.1604H218.631V49.2337H217.102V48.5088H221V49.2337Z" fill="black"/>
<defs>
<linearGradient id="paint0_linear_2919_625" x1="28.9394" y1="23.5465" x2="24.1522" y2="19.3642" gradientUnits="userSpaceOnUse">
<stop stop-color="#3980FF"/>
<stop offset="1" stop-color="#0029BC"/>
</linearGradient>
<linearGradient id="paint1_linear_2919_625" x1="79.0633" y1="20.8337" x2="79.0633" y2="6.18009" gradientUnits="userSpaceOnUse">
<stop stop-color="#0029BC"/>
<stop offset="1" stop-color="#3980FF"/>
</linearGradient>
<linearGradient id="paint2_linear_2919_625" x1="94.0282" y1="20.8338" x2="94.0282" y2="6.18017" gradientUnits="userSpaceOnUse">
<stop stop-color="#0029BC"/>
<stop offset="1" stop-color="#3980FF"/>
</linearGradient>
<linearGradient id="paint3_linear_2919_625" x1="105.495" y1="20.8337" x2="105.495" y2="6.18007" gradientUnits="userSpaceOnUse">
<stop stop-color="#0029BC"/>
<stop offset="1" stop-color="#3980FF"/>
</linearGradient>
<linearGradient id="paint4_linear_2919_625" x1="113.761" y1="20.8333" x2="113.761" y2="6.17968" gradientUnits="userSpaceOnUse">
<stop stop-color="#0029BC"/>
<stop offset="1" stop-color="#3980FF"/>
</linearGradient>
<linearGradient id="paint5_linear_2919_625" x1="125.972" y1="20.8338" x2="125.972" y2="6.18017" gradientUnits="userSpaceOnUse">
<stop stop-color="#0029BC"/>
<stop offset="1" stop-color="#3980FF"/>
</linearGradient>
<linearGradient id="paint6_linear_2919_625" x1="137.817" y1="20.8339" x2="137.817" y2="6.18031" gradientUnits="userSpaceOnUse">
<stop stop-color="#0029BC"/>
<stop offset="1" stop-color="#3980FF"/>
</linearGradient>
<linearGradient id="paint7_linear_2919_625" x1="144.076" y1="20.8335" x2="144.076" y2="6.17988" gradientUnits="userSpaceOnUse">
<stop stop-color="#0029BC"/>
<stop offset="1" stop-color="#3980FF"/>
</linearGradient>
<linearGradient id="paint8_linear_2919_625" x1="144.076" y1="20.8338" x2="144.076" y2="6.18019" gradientUnits="userSpaceOnUse">
<stop stop-color="#0029BC"/>
<stop offset="1" stop-color="#3980FF"/>
</linearGradient>
<linearGradient id="paint9_linear_2919_625" x1="154.374" y1="20.8338" x2="154.374" y2="6.18017" gradientUnits="userSpaceOnUse">
<stop stop-color="#0029BC"/>
<stop offset="1" stop-color="#3980FF"/>
</linearGradient>
<linearGradient id="paint10_linear_2919_625" x1="10.1468" y1="32.4001" x2="20.663" y2="40.8325" gradientUnits="userSpaceOnUse">
<stop stop-color="#0029BC"/>
<stop offset="1" stop-color="#3980FF"/>
</linearGradient>
<linearGradient id="paint11_linear_2919_625" x1="36.8652" y1="32.4569" x2="41.6525" y2="36.6393" gradientUnits="userSpaceOnUse">
<stop stop-color="#3980FF"/>
<stop offset="1" stop-color="#0029BC"/>
</linearGradient>
<linearGradient id="paint12_linear_2919_625" x1="55.6578" y1="23.6033" x2="45.1417" y2="15.1709" gradientUnits="userSpaceOnUse">
<stop stop-color="#0029BC"/>
<stop offset="1" stop-color="#3980FF"/>
</linearGradient>
</defs>
</svg>
