<svg width="221" height="56" fill="none" xmlns="http://www.w3.org/2000/svg"><path d="m28.907 12.746-9.146 7.914v4.229l9.146 9.393V12.746Z" fill="url(#a)"/><path d="M81.923 16.975c-.57.453-1.41.695-2.489.695-1.14 0-2.04-.242-2.759-.756-.69-.513-1.17-1.178-1.44-2.084l-.209-.725-2.489 1.45.15.453c.48 1.39 1.29 2.507 2.489 3.293 1.17.785 2.579 1.178 4.198 1.178 1.8 0 3.299-.484 4.408-1.42 1.17-.966 1.74-2.265 1.74-3.836 0-.483-.06-.967-.21-1.39a4.294 4.294 0 0 0-.45-1.057c-.18-.332-.48-.634-.87-.966-.36-.272-.66-.483-.9-.635-.27-.18-.66-.362-1.2-.573-.509-.212-.899-.363-1.169-.453-.27-.091-.69-.242-1.289-.454-1.23-.392-2.129-.815-2.639-1.178-.42-.302-.6-.724-.6-1.359 0-.725.24-1.268.72-1.661.51-.423 1.23-.634 2.1-.634 1.708 0 2.848.785 3.508 2.386l.24.604 2.428-1.39-.21-.483a6.822 6.822 0 0 0-2.308-2.839c-1.05-.755-2.28-1.118-3.689-1.118-1.56 0-2.908.454-3.988 1.36-1.11.936-1.68 2.205-1.68 3.805 0 1.662.72 2.93 2.16 3.806.6.393 1.739.846 3.538 1.45 1.38.453 2.37.906 2.969 1.299.48.332.69.816.69 1.48.06.755-.21 1.299-.75 1.752Z" fill="url(#b)"/><path d="M94.037 20.448c1.89 0 3.509-.664 4.828-1.963 1.32-1.299 1.979-2.93 1.979-4.863 0-1.903-.659-3.564-1.979-4.863-1.32-1.299-2.938-1.963-4.828-1.963-1.889 0-3.508.664-4.827 1.963-1.32 1.299-1.98 2.93-1.98 4.863 0 1.903.66 3.564 1.98 4.863 1.319 1.33 2.938 1.963 4.827 1.963Zm0-10.934c1.14 0 2.1.393 2.88 1.178.779.816 1.169 1.752 1.169 2.93 0 1.178-.39 2.115-1.17 2.93-.78.816-1.74 1.178-2.879 1.178-1.14 0-2.099-.393-2.878-1.178-.78-.815-1.17-1.752-1.17-2.93 0-1.178.39-2.114 1.17-2.93.78-.785 1.709-1.178 2.878-1.178Z" fill="url(#c)"/><path d="M103.423 20.177h2.729V9.817h3.388v-2.72h-3.388c.03-.905.24-1.54.63-1.872.419-.393 1.139-.544 2.129-.453l.629.06V2.114l-.539-.03c-1.74-.121-3.149.272-4.109 1.178-.959.906-1.439 2.175-1.469 3.836h-2.009v2.718h2.009v10.36Z" fill="url(#d)"/><path d="M114.038 19.723c.63.393 1.47.574 2.459.574.51 0 1.05-.06 1.65-.151l.509-.09v-2.508l-.629.03c-.75.03-1.38.03-1.86.03-.329 0-.569-.09-.719-.24-.09-.091-.21-.333-.21-.998V9.816h3.388V7.097h-3.388V3.563l-2.729.846v2.688h-3.658v2.719h3.658v6.615c0 1.6.54 2.688 1.529 3.292Z" fill="url(#e)"/><path d="m131.94 17.458-2.399-1.42c-.27.514-.689.907-1.259 1.239-.57.332-1.26.483-2.039.483-1.14 0-2.039-.302-2.789-.936a3.523 3.523 0 0 1-1.169-1.812h10.195l.06-.544c.03-.332.06-.604.06-.785 0-1.843-.6-3.444-1.769-4.803-1.2-1.36-2.759-2.084-4.678-2.084-1.979 0-3.599.664-4.858 1.963-1.259 1.299-1.889 2.93-1.889 4.863 0 1.963.66 3.625 1.919 4.893 1.259 1.3 2.939 1.933 4.948 1.933 1.229 0 2.369-.271 3.358-.815a6.166 6.166 0 0 0 2.309-2.175Zm-5.817-7.944a3.57 3.57 0 0 1 2.429.907 3.49 3.49 0 0 1 1.109 1.872h-7.376c.209-.725.569-1.329 1.139-1.812.72-.634 1.619-.967 2.699-.967Z" fill="url(#f)"/><path d="M137.308 12.958c0-1.178.3-2.054.869-2.568.6-.543 1.35-.815 2.279-.815h.6V6.856h-.6c-1.289 0-2.338.333-3.148 1.027v-.845h-2.729v13.078h2.729v-7.158Z" fill="url(#g)"/><path d="M145.434 7.098h-2.729v13.078h2.729V7.098Z" fill="url(#h)"/><path d="M144.085 5.769c.48 0 .899-.181 1.229-.514.33-.332.51-.755.51-1.238s-.18-.906-.51-1.238a1.729 1.729 0 0 0-2.429 0c-.33.332-.51.755-.51 1.238s.18.906.51 1.238c.3.333.72.514 1.2.514Z" fill="url(#i)"/><path d="M159.198 8.76c-1.319-1.3-2.939-1.964-4.828-1.964-1.889 0-3.508.664-4.828 1.963-1.319 1.299-1.979 2.93-1.979 4.863 0 1.903.66 3.564 1.979 4.863 1.32 1.299 2.939 1.963 4.828 1.963 1.889 0 3.509-.664 4.828-1.963 1.319-1.299 1.979-2.93 1.979-4.863 0-1.903-.66-3.534-1.979-4.863Zm-4.828 9c-1.139 0-2.099-.392-2.879-1.178-.779-.815-1.169-1.752-1.169-2.93 0-1.178.39-2.114 1.169-2.93.78-.815 1.74-1.177 2.879-1.177 1.14 0 2.099.392 2.879 1.178.78.815 1.169 1.751 1.169 2.93 0 1.177-.389 2.114-1.169 2.93-.78.785-1.709 1.177-2.879 1.177Z" fill="url(#j)"/><path d="M85.191 22.563H72.207v2.748h5.068v15.103h2.849V25.31h5.067v-2.748ZM90.769 27.033c-1.98 0-3.599.665-4.858 1.963-1.26 1.3-1.889 2.93-1.889 4.863 0 1.964.66 3.625 1.92 4.894 1.259 1.298 2.938 1.933 4.947 1.933 1.23 0 2.369-.272 3.358-.816.99-.543 1.77-1.268 2.34-2.205l-2.4-1.42c-.27.514-.69.907-1.26 1.24-.569.331-1.259.482-2.038.482-1.14 0-2.04-.302-2.789-.936a3.531 3.531 0 0 1-1.17-1.812h10.196l.06-.544c.03-.332.06-.604.06-.785 0-1.843-.6-3.444-1.77-4.803-1.199-1.36-2.788-2.054-4.707-2.054Zm0 2.719c.93 0 1.74.302 2.429.906.54.483.93 1.087 1.11 1.873H86.93c.21-.725.57-1.33 1.14-1.813.719-.664 1.618-.966 2.698-.966ZM108.791 35.944c-.36.634-.81 1.117-1.41 1.48-.599.362-1.289.543-2.069.543-1.139 0-2.099-.392-2.878-1.178-.78-.815-1.17-1.752-1.17-2.93 0-1.178.39-2.114 1.17-2.93.779-.815 1.739-1.177 2.878-1.177.78 0 1.47.18 2.069.543.6.363 1.02.816 1.29 1.42l.27.604 2.309-1.329-.21-.483c-.48-1.057-1.23-1.903-2.279-2.537a6.711 6.711 0 0 0-3.449-.937c-1.919 0-3.568.665-4.858 1.963-1.289 1.3-1.949 2.93-1.949 4.863 0 1.903.66 3.535 1.949 4.863 1.29 1.3 2.939 1.964 4.858 1.964 1.26 0 2.399-.302 3.449-.906a5.95 5.95 0 0 0 2.369-2.507l.27-.514-2.309-1.359-.3.544ZM119.076 27.033c-1.349 0-2.489.392-3.388 1.148v-5.619h-2.729v17.852h2.729v-6.827c0-1.329.299-2.326.899-2.93.6-.604 1.38-.906 2.339-.906.87 0 1.499.242 1.949.695.45.483.66 1.148.66 2.054v7.883h2.729V32.5c0-1.631-.48-2.96-1.41-3.957-.899-.997-2.159-1.51-3.778-1.51ZM132.99 27.033c-1.35 0-2.489.393-3.389 1.148v-.846h-2.728v13.079h2.728v-6.826c0-1.33.3-2.326.9-2.93.6-.604 1.379-.906 2.339-.906.869 0 1.499.241 1.949.694.45.484.66 1.148.66 2.054v7.884h2.728V32.5c0-1.63-.479-2.96-1.409-3.956-.9-.997-2.189-1.51-3.778-1.51ZM146.844 27.033c-1.89 0-3.509.665-4.828 1.963-1.32 1.3-1.979 2.93-1.979 4.863 0 1.903.659 3.565 1.979 4.863 1.319 1.3 2.938 1.964 4.828 1.964 1.889 0 3.508-.665 4.827-1.964 1.32-1.298 1.979-2.93 1.979-4.863 0-1.902-.659-3.564-1.979-4.863-1.319-1.298-2.938-1.963-4.827-1.963Zm0 10.934c-1.14 0-2.1-.392-2.879-1.178-.78-.815-1.17-1.752-1.17-2.93 0-1.178.39-2.114 1.17-2.93.779-.815 1.739-1.177 2.879-1.177 1.139 0 2.099.392 2.878 1.178.78.815 1.17 1.752 1.17 2.93 0 1.178-.39 2.114-1.17 2.93-.779.785-1.739 1.177-2.878 1.177ZM158.508 21.838h-2.729v18.546h2.729V21.838ZM167.444 27.033c-1.889 0-3.508.665-4.828 1.963-1.319 1.3-1.979 2.93-1.979 4.863 0 1.903.66 3.565 1.979 4.863 1.32 1.3 2.939 1.964 4.828 1.964 1.889 0 3.509-.665 4.828-1.964 1.319-1.298 1.979-2.93 1.979-4.863 0-1.902-.66-3.564-1.979-4.863-1.319-1.298-2.939-1.963-4.828-1.963Zm0 10.934c-1.139 0-2.099-.392-2.879-1.178-.779-.815-1.169-1.752-1.169-2.93 0-1.178.39-2.114 1.169-2.93.78-.815 1.74-1.177 2.879-1.177 1.14 0 2.099.392 2.879 1.178.779.815 1.169 1.752 1.169 2.93 0 1.178-.39 2.114-1.169 2.93-.78.785-1.739 1.177-2.879 1.177ZM194.822 27.305h-2.729v13.078h2.729V27.305ZM192.243 23.016c-.33.332-.51.755-.51 1.238 0 .484.18.906.51 1.239.33.332.75.513 1.229.513.48 0 .9-.181 1.23-.513.33-.332.51-.755.51-1.239 0-.483-.18-.906-.51-1.238-.69-.664-1.799-.664-2.459 0ZM203.728 27.033c-1.979 0-3.599.665-4.858 1.963-1.259 1.3-1.889 2.93-1.889 4.863 0 1.964.66 3.625 1.919 4.894 1.259 1.298 2.939 1.933 4.948 1.933 1.229 0 2.369-.272 3.358-.816.99-.543 1.769-1.268 2.339-2.205l-2.399-1.42c-.27.514-.689.907-1.259 1.24-.57.331-1.26.482-2.039.482-1.14 0-2.039-.302-2.789-.936a3.523 3.523 0 0 1-1.169-1.812h10.195l.06-.544c.03-.332.06-.604.06-.785 0-1.843-.6-3.444-1.769-4.803-1.23-1.36-2.819-2.054-4.708-2.054Zm0 2.719c.929 0 1.739.302 2.429.906a3.496 3.496 0 0 1 1.109 1.873h-7.376c.209-.725.569-1.33 1.139-1.813.72-.664 1.589-.966 2.699-.966ZM220.13 34.282a4.513 4.513 0 0 0-1.979-1.238 53.086 53.086 0 0 0-2.069-.604c-.6-.151-1.139-.393-1.529-.665-.3-.211-.45-.453-.45-.785 0-.393.15-.695.48-.906.39-.272.87-.393 1.409-.393 1.2 0 1.919.423 2.279 1.299l.27.634 2.339-1.39-.24-.482a4.576 4.576 0 0 0-1.829-2.024c-.81-.483-1.769-.725-2.819-.725-1.289 0-2.399.362-3.268 1.117-.9.756-1.35 1.722-1.35 2.87 0 .966.3 1.752.87 2.386.54.574 1.199.997 1.979 1.239.69.211 1.379.422 2.069.604.6.15 1.14.392 1.529.664.3.212.45.453.45.785 0 .454-.15.725-.48.937-.419.242-.989.393-1.649.393s-1.259-.151-1.739-.453a2.242 2.242 0 0 1-.96-1.148l-.239-.665-2.369 1.42.18.483c.359.936.989 1.692 1.889 2.266.899.573 1.979.845 3.208.845 1.38 0 2.549-.362 3.449-1.087.929-.755 1.409-1.752 1.409-2.93.03-1.027-.27-1.812-.84-2.447ZM186.515 27.305v1.269c-1.109-1.027-2.488-1.54-4.168-1.54-1.829 0-3.418.664-4.737 1.993-1.29 1.329-1.95 2.93-1.95 4.832 0 1.903.66 3.535 1.95 4.833 1.289 1.33 2.878 1.994 4.737 1.994 1.68 0 3.089-.514 4.168-1.54v.18c0 1.058-.329 1.873-.989 2.477-.66.605-1.619.937-2.789.937-1.649 0-2.789-.483-3.448-1.42l-2.549 1.118c1.109 1.993 3.119 3.02 5.997 3.02 1.769 0 3.299-.544 4.558-1.6 1.29-1.088 1.949-2.598 1.949-4.501V27.305h-2.729Zm-1.169 9.484c-.78.816-1.739 1.178-2.879 1.178-1.139 0-2.099-.392-2.878-1.178-.78-.815-1.17-1.752-1.17-2.93 0-1.178.39-2.114 1.17-2.93.779-.815 1.739-1.177 2.878-1.177 1.14 0 2.099.392 2.879 1.178.78.815 1.169 1.752 1.169 2.93 0 1.147-.389 2.114-1.169 2.93Z" fill="#000"/><path d="M28.907 56 0 28h14.993l13.914 14.317V56Z" fill="url(#k)"/><path d="M28.907 0 0 28l7.647 7.551 21.26-21.868V0Z" fill="#3980FF"/><path d="m36.883 43.254 9.146-7.914v-4.229l-9.146-9.393v21.536Z" fill="url(#l)"/><path d="M36.883 0 65.79 28H50.827L36.883 13.683V0Z" fill="url(#m)"/><path d="M36.883 56 65.79 28l-7.616-7.55-21.29 21.868V56Z" fill="#3980FF"/><path d="M76.435 53.16v-3.08l-1.529 2.537h-.39l-1.529-2.507v3.05h-.81V48.51h.72l1.83 3.08 1.798-3.08h.69v4.651h-.78ZM82.733 51.56c0 1.057-.69 1.6-1.86 1.6h-1.979V48.51h.84v1.57h1.29c1.079 0 1.709.484 1.709 1.48Zm-.87.03c0-.574-.39-.846-1.05-.846h-1.11v1.752h1.11c.66 0 1.05-.332 1.05-.906Zm1.53-3.081h.839v4.651h-.84V48.51ZM92.088 48.509v4.651h-.84v-3.926H88.85v3.926h-.84V48.51h4.078ZM93.737 48.509h.84V51.8l2.489-3.292h.81v4.651h-.84v-3.292l-2.489 3.292h-.81V48.51ZM105.402 48.509v4.651h-5.937V48.51h.84v3.926h1.709V48.51h.839v3.926h1.71V48.51h.839ZM110.5 52.435v.725h-3.448V48.51h3.358v.725h-2.519v1.208h2.219v.725h-2.219v1.268h2.609ZM116.017 53.16v-3.08l-1.529 2.537h-.39l-1.529-2.507v3.05h-.81V48.51h.72l1.829 3.08 1.799-3.08h.69v4.651h-.78ZM122.315 51.197h-.87v1.963h-.84V48.51h.84v1.933h.87l1.319-1.933h.9l-1.59 2.265 1.65 2.386h-.96l-1.319-1.963ZM125.193 50.834c0-1.389 1.05-2.386 2.489-2.386 1.44 0 2.489.997 2.489 2.386 0 1.39-1.049 2.387-2.489 2.387-1.439 0-2.489-1.027-2.489-2.387Zm4.109 0c0-.936-.69-1.63-1.62-1.63-.929 0-1.619.694-1.619 1.63 0 .937.69 1.631 1.619 1.631a1.6 1.6 0 0 0 1.62-1.63ZM135.869 52.435v1.722h-.78v-.997h-3.539v.997h-.809v-1.722h.21c.629-.03.779-1.087.809-2.446l.06-1.48h3.389v3.926h.66Zm-3.839 0h2.339v-3.201h-1.799l-.03.815c-.06 1.057-.15 1.994-.51 2.386ZM137.758 52.647c0 .151-.03.272-.15.574l-.33.937h-.54l.27-1.028a.507.507 0 0 1-.3-.483c0-.332.24-.544.54-.544.3 0 .51.212.51.544ZM142.855 51.197h-.869v1.963h-.84V48.51h.84v1.933h.869l1.32-1.933h.899l-1.589 2.265 1.649 2.386h-.959l-1.32-1.963ZM145.734 50.834c0-1.389 1.05-2.386 2.489-2.386 1.439 0 2.489.997 2.489 2.386 0 1.39-1.05 2.387-2.489 2.387-1.439 0-2.489-1.027-2.489-2.387Zm4.108 0c0-.936-.689-1.63-1.619-1.63s-1.619.694-1.619 1.63c0 .937.689 1.631 1.619 1.631a1.6 1.6 0 0 0 1.619-1.63ZM155.24 49.234h-1.53v3.926h-.839v-3.926h-1.529v-.725h3.898v.725ZM155.9 50.834c0-1.389 1.049-2.386 2.488-2.386 1.44 0 2.489.997 2.489 2.386 0 1.39-1.049 2.387-2.489 2.387-1.439 0-2.488-1.027-2.488-2.387Zm4.108 0c0-.936-.69-1.63-1.62-1.63-.929 0-1.619.694-1.619 1.63 0 .937.69 1.631 1.619 1.631.93 0 1.62-.694 1.62-1.63ZM166.005 50.17c0 1.027-.75 1.661-1.979 1.661h-1.05v1.33h-.869v-4.652h1.889c1.259 0 2.009.634 2.009 1.661Zm-.84 0c0-.574-.39-.936-1.139-.936h-.99v1.842h.99c.749 0 1.139-.332 1.139-.906ZM171.013 51.56c0 1.057-.69 1.6-1.86 1.6h-1.979V48.51h.84v1.57h1.289c1.08 0 1.71.484 1.71 1.48Zm-.87.03c0-.574-.39-.846-1.05-.846h-1.109v1.752h1.109c.66 0 1.05-.332 1.05-.906Zm1.529-3.081h.84v4.651h-.84V48.51ZM174.161 48.509h.84V51.8l2.489-3.292h.809v4.651h-.839v-3.292l-2.489 3.292h-.81V48.51Zm.84-1.269h.6c0 .332.21.514.599.514.39 0 .6-.181.6-.514h.6c0 .604-.42.967-1.2.967-.809 0-1.199-.363-1.199-.967ZM185.916 50.17c0 1.027-.75 1.661-1.979 1.661h-1.05v1.33h-.869v-4.652h1.889c1.229 0 2.009.634 2.009 1.661Zm-.87 0c0-.574-.389-.936-1.139-.936h-.99v1.842h.99c.75 0 1.139-.332 1.139-.906ZM189.874 52.073h-2.309l-.45 1.087h-.899l2.069-4.651h.839l2.069 4.651h-.899l-.42-1.087Zm-.3-.665-.869-2.023-.87 2.023h1.739ZM192.273 48.509h3.598v.725h-2.758v1.148h1.379c1.11 0 1.709.483 1.709 1.359 0 .936-.659 1.45-1.829 1.45h-2.069v-4.682h-.03Zm2.039 3.987c.66 0 1.02-.272 1.02-.755 0-.484-.33-.725-1.02-.725h-1.199v1.48h1.199ZM197.101 50.834c0-1.389 1.049-2.386 2.489-2.386 1.439 0 2.489.997 2.489 2.386 0 1.39-1.05 2.387-2.489 2.387-1.44 0-2.489-1.027-2.489-2.387Zm4.108 0c0-.936-.69-1.63-1.619-1.63-.93 0-1.62.694-1.62 1.63 0 .937.69 1.631 1.62 1.631a1.6 1.6 0 0 0 1.619-1.63ZM206.606 49.234h-1.529v3.926h-.839v-3.926h-1.53v-.725h3.898v.725ZM210.505 52.073h-2.309l-.45 1.087h-.87l2.07-4.651h.839l2.069 4.651h-.899l-.45-1.087Zm-.27-.665-.87-2.023-.869 2.023h1.739ZM216.382 52.435v.725h-3.478V48.51h3.358v.725h-2.519v1.208h2.219v.725h-2.219v1.268h2.639ZM221 49.234h-1.529v3.926h-.84v-3.926h-1.529v-.725H221v.725Z" fill="#000"/><defs><linearGradient id="a" x1="28.939" y1="23.547" x2="24.152" y2="19.364" gradientUnits="userSpaceOnUse"><stop stop-color="#3980FF"/><stop offset="1" stop-color="#0029BC"/></linearGradient><linearGradient id="b" x1="79.063" y1="20.834" x2="79.063" y2="6.18" gradientUnits="userSpaceOnUse"><stop stop-color="#0029BC"/><stop offset="1" stop-color="#3980FF"/></linearGradient><linearGradient id="c" x1="94.028" y1="20.834" x2="94.028" y2="6.18" gradientUnits="userSpaceOnUse"><stop stop-color="#0029BC"/><stop offset="1" stop-color="#3980FF"/></linearGradient><linearGradient id="d" x1="105.495" y1="20.834" x2="105.495" y2="6.18" gradientUnits="userSpaceOnUse"><stop stop-color="#0029BC"/><stop offset="1" stop-color="#3980FF"/></linearGradient><linearGradient id="e" x1="113.761" y1="20.833" x2="113.761" y2="6.18" gradientUnits="userSpaceOnUse"><stop stop-color="#0029BC"/><stop offset="1" stop-color="#3980FF"/></linearGradient><linearGradient id="f" x1="125.972" y1="20.834" x2="125.972" y2="6.18" gradientUnits="userSpaceOnUse"><stop stop-color="#0029BC"/><stop offset="1" stop-color="#3980FF"/></linearGradient><linearGradient id="g" x1="137.817" y1="20.834" x2="137.817" y2="6.18" gradientUnits="userSpaceOnUse"><stop stop-color="#0029BC"/><stop offset="1" stop-color="#3980FF"/></linearGradient><linearGradient id="h" x1="144.076" y1="20.834" x2="144.076" y2="6.18" gradientUnits="userSpaceOnUse"><stop stop-color="#0029BC"/><stop offset="1" stop-color="#3980FF"/></linearGradient><linearGradient id="i" x1="144.076" y1="20.834" x2="144.076" y2="6.18" gradientUnits="userSpaceOnUse"><stop stop-color="#0029BC"/><stop offset="1" stop-color="#3980FF"/></linearGradient><linearGradient id="j" x1="154.374" y1="20.834" x2="154.374" y2="6.18" gradientUnits="userSpaceOnUse"><stop stop-color="#0029BC"/><stop offset="1" stop-color="#3980FF"/></linearGradient><linearGradient id="k" x1="10.147" y1="32.4" x2="20.663" y2="40.833" gradientUnits="userSpaceOnUse"><stop stop-color="#0029BC"/><stop offset="1" stop-color="#3980FF"/></linearGradient><linearGradient id="l" x1="36.865" y1="32.457" x2="41.653" y2="36.639" gradientUnits="userSpaceOnUse"><stop stop-color="#3980FF"/><stop offset="1" stop-color="#0029BC"/></linearGradient><linearGradient id="m" x1="55.658" y1="23.603" x2="45.142" y2="15.171" gradientUnits="userSpaceOnUse"><stop stop-color="#0029BC"/><stop offset="1" stop-color="#3980FF"/></linearGradient></defs></svg>