<svg width="33" height="39" fill="none" xmlns="http://www.w3.org/2000/svg"><path d="M16.485 4.963a4.954 4.954 0 0 0-4.95 4.95 4.954 4.954 0 0 0 4.95 4.948 4.955 4.955 0 0 0 4.949-4.949 4.955 4.955 0 0 0-4.95-4.949Zm0 8.227a3.282 3.282 0 0 1-3.278-3.278 3.282 3.282 0 0 1 3.278-3.278 3.282 3.282 0 0 1 3.277 3.278 3.282 3.282 0 0 1-3.277 3.278Z" fill="#fff" stroke="#fff" stroke-width=".3"/><path d="M31.567.85H1.402a.836.836 0 0 0-.835.836c0 4.163.669 7.638 1.872 10.146 1.18 2.457 2.882 4.003 4.983 4.327v1.98c0 4.715 3.621 8.593 8.227 9.015v5.266c-1.964.142-3.33.788-4.209 1.688-.9.921-1.275 2.095-1.275 3.227 0 .462.374.836.835.836h10.97a.835.835 0 0 0 .835-.836c0-1.132-.377-2.306-1.276-3.227-.88-.9-2.244-1.546-4.209-1.688v-5.266c4.606-.423 8.227-4.3 8.227-9.015v-1.98c2.101-.324 3.804-1.87 4.983-4.327 1.204-2.508 1.873-5.983 1.873-10.146a.835.835 0 0 0-.836-.836ZM3.8 10.875C2.876 8.81 2.324 5.96 2.247 2.52h5.175v11.947c-1.478-.335-2.721-1.577-3.623-3.593ZM19.67 34.75c.712.413 1.174 1.002 1.365 1.748h-9.098c.192-.746.654-1.335 1.366-1.748.772-.45 1.842-.694 3.183-.694 1.341 0 2.412.245 3.184.694Zm4.207-16.612c0 4.075-3.316 7.391-7.391 7.391s-7.391-3.316-7.391-7.39V2.52h14.782V18.14Zm5.295-7.264c-.902 2.016-2.145 3.258-3.624 3.593V2.52h5.176c-.077 3.439-.63 6.29-1.552 8.354Z" fill="#fff" stroke="#fff" stroke-width=".3"/></svg>