<svg width="37" height="37" fill="none" xmlns="http://www.w3.org/2000/svg"><path d="M33.909.004c-3.163.184-8.855.726-11.456 2.288-3.341 2.008-6.638 5.777-9.298 9.394l-5.306.694a2.967 2.967 0 0 0-2.326 1.753L4.28 17.004a.807.807 0 0 0 .601 1.118l3.616.64c-.268.454-.498.85-.678 1.169a2.19 2.19 0 0 0 .357 2.622l.202.202-.857.857a2.22 2.22 0 0 0 0 3.135l1.955 1.956c.419.419.975.649 1.568.649.591 0 1.148-.23 1.567-.65l.857-.857.202.202a2.182 2.182 0 0 0 2.622.357c.318-.18.715-.41 1.17-.678l.638 3.616a.808.808 0 0 0 1.118.602L22.09 30.7a2.966 2.966 0 0 0 1.753-2.326l.694-5.306c3.618-2.66 7.386-5.957 9.394-9.298 1.562-2.6 2.104-8.293 2.288-11.455a2.183 2.183 0 0 0-2.31-2.311ZM6.17 16.708l.837-1.931a1.34 1.34 0 0 1 1.05-.792l3.813-.499a88.087 88.087 0 0 0-2.476 3.792l-3.224-.57Zm5.296 10.85a.613.613 0 0 1-.846 0l-1.956-1.955a.599.599 0 0 1 0-.846l.858-.857 2.802 2.802-.858.856Zm10.772.607a1.34 1.34 0 0 1-.792 1.05l-1.931.838-.57-3.224a88.137 88.137 0 0 0 3.792-2.476l-.499 3.812Zm10.305-15.227c-3.705 6.166-13.987 12.32-17.05 14.06a.575.575 0 0 1-.68-.094l-.773-.773v-.001l-3.947-3.946-.001-.001-.773-.773a.568.568 0 0 1-.095-.68c1.74-3.063 7.895-13.345 14.061-17.05 2.39-1.435 8.29-1.919 10.751-2.061a.565.565 0 0 1 .567.603c-.14 2.426-.624 8.327-2.06 10.716Z" fill="#fff"/><path d="M26.114 5.896a4.19 4.19 0 0 0-2.98 1.234 4.216 4.216 0 0 0 0 5.957 4.187 4.187 0 0 0 2.98 1.233 4.187 4.187 0 0 0 2.98-1.233 4.215 4.215 0 0 0 0-5.957 4.183 4.183 0 0 0-2.98-1.234Zm1.826 6.037a2.566 2.566 0 0 1-1.826.756c-.69 0-1.338-.268-1.826-.756a2.584 2.584 0 0 1 0-3.65 2.566 2.566 0 0 1 1.826-.756 2.583 2.583 0 0 1 1.826 4.406ZM4.78 26.956A4.456 4.456 0 0 0 1.61 28.27C.012 29.866-.011 34.507 0 35.42c.006.44.361.796.801.802h.113c1.633 0 5.586-.156 7.037-1.607a4.457 4.457 0 0 0 1.314-3.173 4.457 4.457 0 0 0-1.314-3.172 4.457 4.457 0 0 0-3.172-1.314Zm2.026 6.511c-.699.7-3.044 1.056-5.174 1.122.06-1.95.407-4.456 1.124-5.172.54-.541 1.26-.839 2.025-.839.765 0 1.484.298 2.025.839.54.54.838 1.26.838 2.025 0 .765-.298 1.484-.838 2.025Z" fill="#fff"/></svg>