<svg width="158" height="93" fill="none" xmlns="http://www.w3.org/2000/svg"><path d="M154.555 70.82c0-10.18-8.252-18.431-18.431-18.431-10.178 0-18.43 8.251-18.43 18.43s8.252 18.43 18.43 18.43c10.179 0 18.431-8.251 18.431-18.43Z" fill="#FEF4FF"/><path d="M132.147 75.398h.5v-.5h-.5v.5Zm0 3.21h-.5a.5.5 0 0 0 .8.4l-.3-.4Zm4.282-3.21v-.5h-.166l-.133.1.299.4Zm-3.211-7.99h-.5v1h.5v-1Zm6.423 1h.5v-1h-.5v1Zm-6.423 2.21h-.5v1h.5v-1Zm4.282 1h.5v-1h-.5v1Zm-5.853 3.78v3.21h1v-3.21h-1Zm.8 3.61 4.282-3.21-.599-.8-4.283 3.21.6.8Zm3.982-3.11h6.424v-1h-6.424v1Zm6.424 0a1.57 1.57 0 0 0 1.571-1.57h-1a.57.57 0 0 1-.571.57v1Zm1.571-1.57v-9.63h-1v9.63h1Zm0-9.63a1.57 1.57 0 0 0-1.571-1.57v1a.57.57 0 0 1 .571.57h1Zm-1.571-1.57h-12.847v1h12.847v-1Zm-12.847 0a1.57 1.57 0 0 0-1.571 1.57h1a.57.57 0 0 1 .571-.57v-1Zm-1.571 1.57v9.63h1v-9.63h-1Zm0 9.63c0 .868.703 1.57 1.571 1.57v-1a.57.57 0 0 1-.571-.57h-1Zm1.571 1.57h2.141v-1h-2.141v1Zm3.212-7.49h6.423v-1h-6.423v1Zm0 3.21h4.282v-1h-4.282v1Z" fill="#000"/><path d="M157.306 70.689c0-11.77-9.541-21.31-21.31-21.31-11.769 0-21.31 9.54-21.31 21.31s9.541 21.31 21.31 21.31c11.769 0 21.31-9.54 21.31-21.31ZM104.434 1H69.646a3.34 3.34 0 0 0-3.34 3.34v34.788a3.34 3.34 0 0 0 3.34 3.34h34.788a3.34 3.34 0 0 0 3.34-3.34V4.34A3.34 3.34 0 0 0 104.434 1ZM39.128 25.623H4.34A3.34 3.34 0 0 0 1 28.963v34.788a3.34 3.34 0 0 0 3.34 3.34h34.788a3.34 3.34 0 0 0 3.34-3.34V28.964a3.34 3.34 0 0 0-3.34-3.341Z" stroke="#14161D"/><path d="M36.695 28.835H7.058a2.846 2.846 0 0 0-2.846 2.846v29.637a2.846 2.846 0 0 0 2.846 2.846h29.637a2.846 2.846 0 0 0 2.846-2.846V31.681a2.846 2.846 0 0 0-2.846-2.846ZM69.992 8.948a4.262 4.262 0 0 1 4.262-4.262h25.572a4.262 4.262 0 0 1 4.262 4.262v14.917a4.262 4.262 0 0 1-4.262 4.262H74.254a4.262 4.262 0 0 1-4.262-4.262V8.948Z" fill="#FEF4FF"/><path d="M17.808 40.397v-2.034c0-.749.607-1.356 1.356-1.356h2.034m6.78 0h2.035c.749 0 1.356.607 1.356 1.356v2.034m-8.814-3.39h4.068m1.356 13.56h2.034c.749 0 1.356-.606 1.356-1.355v-2.035m0-5.424v4.068m-15.595-3.39H13.74c-.749 0-1.356.607-1.356 1.356v2.034m0 6.78v2.035c0 .749.607 1.356 1.356 1.356h2.034m-3.39-8.815v4.069m10.17 4.746h2.035c.749 0 1.356-.607 1.356-1.356v-2.034m-8.815 3.39h4.068m-3.39-13.56v8.136h8.137V42.43h-8.137Z" stroke="#000"/><path fill-rule="evenodd" clip-rule="evenodd" d="M83.577 36.12a.799.799 0 1 0 .001-1.598.799.799 0 0 0-.001 1.597Zm3.197 0a.799.799 0 1 0 0-1.598.799.799 0 0 0 0 1.597Zm3.995-.8a.798.798 0 1 1-1.597 0 .798.798 0 0 1 1.597 0Z" fill="#7F7ADA"/><path d="m94.499 11.08 5.327 5.458-5.327 5.197M79.582 11.08l-5.328 5.458 5.328 5.197" stroke="#3980FF" stroke-linecap="round" stroke-linejoin="round"/><path d="M86.464 49.955c.133 11.615-2.016 28.429 20.804 28.688" stroke="#7F7ADA" stroke-linecap="round" stroke-dasharray="2 3"/><path d="M23.486 20.27c.13-5.2-1.97-12.73 20.338-12.847H57.74" stroke="#3980FF" stroke-linecap="round" stroke-dasharray="2 3"/></svg>