<svg width="84" height="100" fill="none" xmlns="http://www.w3.org/2000/svg"><path fill-rule="evenodd" clip-rule="evenodd" d="M26.375 62.214c0-.51.438-.923.977-.923h29.297c.54 0 .977.414.977.923 0 .51-.438.922-.977.922H27.352c-.54 0-.977-.413-.977-.922Zm1.954 3.69c0-.51.437-.923.976-.923H44.93c.54 0 .977.413.977.922 0 .51-.437.922-.977.922H29.305c-.54 0-.976-.413-.976-.922Zm-.977 2.766c-.54 0-.977.413-.977.922 0 .51.438.923.977.923h27.344c.54 0 .977-.413.977-.923 0-.508-.438-.922-.977-.922H27.352Zm.977 4.611c0-.509.437-.921.976-.921h11.719c.54 0 .977.412.977.921 0 .51-.438.922-.977.922H29.305c-.54 0-.976-.412-.976-.922Zm.976 2.767c-.54 0-.976.413-.976.923 0 .509.437.922.976.922h11.719c.54 0 .977-.413.977-.922 0-.51-.438-.922-.977-.922H29.305Z" fill="#E4E8F4"/><path d="M11.341 69.522c-.326 0-.59.248-.59.557 0 .309.264.558.59.558.687 0 1.23.21 1.656.64 1.248 1.258 1.08 3.898 1.077 3.963v7.115c0 1.793.527 3.175 1.565 4.105 1.246 1.12 2.819 1.198 3.237 1.198.058 0 .094-.003.103-.003.326-.015.577-.277.56-.586-.017-.309-.3-.546-.621-.529-.016.008-1.41.06-2.465-.888-.796-.713-1.197-1.823-1.197-3.297l-.002-7.077c.01-.128.206-3.149-1.392-4.761a3.287 3.287 0 0 0-.532-.438c.19-.125.368-.27.532-.437 1.598-1.614 1.402-4.634 1.394-4.724v-7.115c0-1.468.4-2.574 1.187-3.288 1.044-.945 2.457-.9 2.478-.898.325.02.6-.22.618-.528.016-.309-.234-.57-.56-.586-.081 0-1.92-.079-3.339 1.195-1.039.932-1.565 2.314-1.565 4.105l.001 7.152c.053.735-.037 2.874-1.076 3.924-.429.433-.97.643-1.659.643ZM72.66 69.522c.326 0 .59.248.59.557 0 .309-.264.558-.59.558-.688 0-1.23.21-1.657.64-1.247 1.258-1.079 3.898-1.076 3.963v7.115c0 1.793-.527 3.175-1.565 4.105-1.246 1.12-2.82 1.198-3.237 1.198-.058 0-.094-.003-.103-.003-.327-.015-.577-.277-.56-.586.017-.309.3-.546.621-.529.016.008 1.41.06 2.465-.888.795-.713 1.197-1.823 1.197-3.297l.001-7.077c-.01-.128-.205-3.149 1.392-4.761.165-.167.344-.314.533-.438a3.297 3.297 0 0 1-.533-.437c-1.597-1.614-1.401-4.634-1.393-4.724v-7.115c0-1.468-.4-2.574-1.187-3.288-1.044-.945-2.457-.9-2.478-.898a.574.574 0 0 1-.618-.528c-.016-.309.234-.57.56-.586.081 0 1.92-.079 3.339 1.195 1.039.932 1.565 2.314 1.565 4.105l-.002 7.152c-.053.735.038 2.874 1.076 3.924.43.433.971.643 1.66.643Z" fill="#3980FF"/><path d="M67.908 18.252c.05.3.306.524.61.524h6.46a6.998 6.998 0 0 1 6.997 6.998v65.98a6.997 6.997 0 0 1-6.998 6.997H8.997A6.997 6.997 0 0 1 2 91.753V25.774a6.997 6.997 0 0 1 6.998-6.998h6.485c.304 0 .56-.224.61-.524a.622.622 0 0 0-.61-.726H8.998A8.248 8.248 0 0 0 .75 25.774v65.98A8.248 8.248 0 0 0 8.998 100h65.98a8.248 8.248 0 0 0 8.247-8.248V25.774a8.248 8.248 0 0 0-8.248-8.248h-6.46a.622.622 0 0 0-.609.726Z" fill="#14161D"/><path d="M42.32 44.64c12.326 0 22.32-9.994 22.32-22.32C64.64 9.993 54.645 0 42.32 0 29.993 0 20 9.993 20 22.32c0 12.326 9.993 22.32 22.32 22.32Z" fill="#FEF4FF"/><path d="M37.2 18.8v-.5a.5.5 0 0 0-.5.5h.5Zm0 1.6.354.353.146-.146V20.4h-.5Zm-2.731.468-.354.354.354-.354ZM40.4 30.8h.5v-.207l-.146-.147-.354.354Zm-1.6-1.6h-.5v.207l.147.146.353-.353Zm0-2.4h.5v-.207l-.146-.147-.354.354Zm-1.6-1.6h-.5v.207l.146.146.354-.353Zm0-1.6v-.5a.5.5 0 0 0-.5.5h.5Zm7.5-12.8V14h1v-3.2h-1Zm-1.1 4.3H42v1h1.6v-1Zm-4.8 3.2h-1.6v1h1.6v-1Zm-2.1.5v1.6h1v-1.6h-1Zm.146 1.246-.468.469.707.707.469-.469-.708-.707Zm-2.024.469-2.868-2.869-.707.707 2.868 2.869.707-.707ZM39.9 17.2a1.1 1.1 0 0 1-1.1 1.1v1a2.1 2.1 0 0 0 2.1-2.1h-1Zm2.1-2.1a2.1 2.1 0 0 0-2.1 2.1h1a1.1 1.1 0 0 1 1.1-1.1v-1Zm-5.622 5.415a1.1 1.1 0 0 1-1.556 0l-.707.707a2.1 2.1 0 0 0 2.97 0l-.707-.707ZM44.7 14a1.1 1.1 0 0 1-1.1 1.1v1a2.1 2.1 0 0 0 2.1-2.1h-1Zm-3.8 19.2v-2.4h-1v2.4h1Zm-.146-2.754-1.6-1.6-.708.707 1.6 1.6.708-.707ZM39.3 29.2v-2.4h-1v2.4h1Zm-.146-2.754-1.6-1.6-.708.707 1.6 1.6.708-.707ZM37.7 25.2v-1.6h-1v1.6h1Zm-.5-1.1h6.4v-1h-6.4v1Zm7.5 1.1v1.067h1V25.2h-1Zm2.633 3.7H51.6v-1h-4.267v1ZM46.3 27.866c0 .571.463 1.034 1.033 1.034v-1a.033.033 0 0 1-.033-.034h-1Zm-.567-.566c.313 0 .567.253.567.566h1c0-.865-.701-1.566-1.567-1.566v1ZM44.7 26.266c0 .571.463 1.034 1.033 1.034v-1a.033.033 0 0 1-.033-.034h-1ZM43.6 24.1a1.1 1.1 0 0 1 1.1 1.1h1a2.1 2.1 0 0 0-2.1-2.1v1ZM42 32.7c-5.91 0-10.7-4.79-10.7-10.7h-1c0 6.462 5.238 11.7 11.7 11.7v-1ZM52.7 22c0 5.91-4.79 10.7-10.7 10.7v1c6.462 0 11.7-5.239 11.7-11.7h-1ZM42 11.3c5.91 0 10.7 4.79 10.7 10.7h1c0-6.462-5.238-11.7-11.7-11.7v1Zm0-1c-6.462 0-11.7 5.238-11.7 11.7h1c0-5.91 4.79-10.7 10.7-10.7v-1Z" fill="#000"/></svg>