<svg width="26" height="26" fill="none" xmlns="http://www.w3.org/2000/svg"><path d="M20.637 5.32a10.633 10.633 0 0 0-7.594-3.153c-5.915 0-10.736 4.82-10.736 10.736 0 1.896.499 3.737 1.43 5.362l-1.516 5.569 5.687-1.495c1.571.856 3.337 1.31 5.135 1.31 5.915 0 10.736-4.82 10.736-10.735 0-2.871-1.116-5.569-3.142-7.594Zm-7.594 16.51a8.95 8.95 0 0 1-4.55-1.246l-.325-.195-3.38.888.9-3.293-.217-.336a8.953 8.953 0 0 1-1.365-4.745c0-4.918 4.008-8.927 8.927-8.927 2.383 0 4.625.932 6.304 2.622a8.866 8.866 0 0 1 2.611 6.316c.022 4.918-3.986 8.916-8.905 8.916Zm4.897-6.674c-.27-.13-1.593-.78-1.83-.877-.25-.087-.423-.13-.607.13-.185.27-.694.877-.845 1.05-.152.185-.315.206-.585.066-.271-.13-1.138-.423-2.156-1.333-.802-.715-1.333-1.592-1.495-1.863-.152-.271-.022-.412.119-.553.119-.119.27-.314.4-.466.13-.151.185-.27.271-.444.087-.184.044-.336-.021-.466a89.41 89.41 0 0 1-.824-1.993c-.216-.52-.444-.455-.606-.466h-.52a.973.973 0 0 0-.715.336c-.239.27-.932.92-.932 2.243 0 1.321.964 2.6 1.094 2.773.13.184 1.896 2.892 4.583 4.052.639.281 1.137.444 1.527.563.64.206 1.225.173 1.69.108.52-.076 1.593-.65 1.81-1.278.227-.628.227-1.16.151-1.278-.076-.12-.238-.174-.509-.304Z" fill="#fff"/></svg>